<svg width="1920" height="653" viewBox="0 0 1920 653" fill="none" xmlns="http://www.w3.org/2000/svg">
<path fill-rule="evenodd" clip-rule="evenodd" d="M1281.83 -278.22C1569.87 -270.717 1860.93 -386.358 2115.19 -336.696C2365.15 -287.875 2377.68 -157.022 2422.83 -55.363C2459.55 27.3026 2375.94 106.124 2348.82 189.276C2320.81 275.108 2437.39 383.275 2260.79 441.304C2079.22 500.966 1768.38 420.889 1541.6 454.516C1270.19 494.761 1154.51 630.864 865.231 648.24C547.404 667.331 197.406 627.898 -41.7916 549.627C-289.844 468.459 -436.233 344.281 -433.974 223.111C-431.818 107.449 -168.082 20.5997 -29.9867 -83.6574C104.708 -185.347 79.9178 -339.514 367.82 -382.214C669.483 -426.955 956.758 -286.688 1281.83 -278.22Z" fill="url(#paint0_linear_3_5)"/>
<defs>
<linearGradient id="paint0_linear_3_5" x1="-434" y1="131" x2="2432" y2="131" gradientUnits="userSpaceOnUse">
<stop stop-color="#5771CE"/>
<stop offset="1" stop-color="#804ED3"/>
</linearGradient>
</defs>
</svg>
