<svg width="1813" height="505" viewBox="0 0 1813 505" fill="none" xmlns="http://www.w3.org/2000/svg">
<path d="M566 257C566 290.137 539.137 317 506 317C472.863 317 446 290.137 446 257C446 223.863 472.863 197 506 197C539.137 197 566 223.863 566 257Z" stroke="#EFEFEF" stroke-width="30"/>
<path d="M1688 118C1688 151.137 1661.14 178 1628 178C1594.86 178 1568 151.137 1568 118C1568 84.8629 1594.86 58 1628 58C1661.14 58 1688 84.8629 1688 118Z" stroke="#EFEFEF" stroke-width="30"/>
<circle cx="671" cy="187" r="20" fill="#F5DDDD"/>
<circle cx="1793" cy="48" r="20" fill="#F5DDDD"/>
<circle cx="661" cy="359" r="27.5" stroke="#EFEFEF" stroke-width="5"/>
<circle cx="1783" cy="220" r="27.5" stroke="#EFEFEF" stroke-width="5"/>
<path d="M118 225C118 168.667 163.667 123 220 123" stroke="#EFEFEF" stroke-width="80"/>
<path d="M10 216C10 107.752 97.7522 20 206 20" stroke="#EFEFEF" stroke-width="20"/>
<path d="M45 202C45 284.843 112.157 352 195 352C277.843 352 345 284.843 345 202C345 119.157 277.843 52 195 52" stroke="#EFEFEF" stroke-width="4" stroke-linecap="round"/>
<path d="M920 197C868.638 197 827 155.139 827 103.5C827 51.8614 868.638 10 920 10" stroke="#EFEFEF" stroke-width="20" stroke-linecap="round"/>
<path d="M1338 261C1376.11 261 1407 291.445 1407 329C1407 366.555 1376.11 397 1338 397" stroke="#EFEFEF" stroke-width="40"/>
<path d="M1036 4C1036 18.9117 1023.46 31 1008 31C992.536 31 980 18.9117 980 4" stroke="#EFEFEF" stroke-width="30"/>
<path d="M934 384.971L985.962 474.971H882.038L934 384.971Z" fill="#F5DDDD"/>
<path d="M1112.06 482.076L1153.08 329L1000 370.017L1006.94 376.954L1141.06 341.015L1105.12 475.139L1112.06 482.076Z" fill="#F5DDDD"/>
<path d="M1096.96 466.974L1126.92 355.158L1015.1 385.119L1096.96 466.974Z" fill="#F5DDDD"/>
<path d="M1220.47 252.751L1171.48 203.761L1238.4 185.83L1220.47 252.751Z" stroke="#EFEFEF" stroke-width="5"/>
</svg>
