<svg width="1920" height="1001" viewBox="0 0 1920 1001" fill="none" xmlns="http://www.w3.org/2000/svg">
<g clip-path="url(#clip0_15_24)">
<path d="M696.832 223.68C853.908 195.354 1006.41 149.622 1162.52 116.461C1318.63 83.2997 1487.26 62.9515 1619.18 88.5472C1853.62 133.999 1909.01 309.76 2162.98 334.173C2283.75 345.785 2423.17 319.632 2556.26 301.44C2689.36 283.247 2836.06 274.489 2920.93 315.391C2992.05 349.655 3001.6 413.324 2965.44 473.144C2929.34 532.959 2853.44 589.252 2768.65 638.92C2460.48 819.516 2023.56 925.481 1624.44 945.907C1225.33 966.337 862.072 908.419 557.044 813.986C252.044 719.569 -0.378084 589.666 -245.933 457.971C-300.332 428.805 -355.144 398.974 -387.879 360.391C-420.614 321.808 -428.986 272.687 -390.146 225.185C-362.681 191.567 -286.435 139.827 -217.011 146.367C-161.554 151.603 -114.253 187.618 -67.3349 201.506C66.9077 241.303 229.627 259.505 401.604 254.494C498.27 251.677 598.007 241.493 696.832 223.68Z" fill="url(#paint0_linear_15_24)"/>
</g>
<defs>
<linearGradient id="paint0_linear_15_24" x1="1167.28" y1="1209.93" x2="970.827" y2="121.957" gradientUnits="userSpaceOnUse">
<stop stop-color="#7ED4EF"/>
<stop offset="0.97658" stop-color="#0169C2" stop-opacity="0"/>
</linearGradient>
<clipPath id="clip0_15_24">
<rect width="2158" height="1001" fill="white" transform="translate(-98)"/>
</clipPath>
</defs>
</svg>
