<svg width="449" height="384" viewBox="0 0 449 384" fill="none" xmlns="http://www.w3.org/2000/svg">
<path d="M172.39 355.01C172.39 355.86 171.7 356.55 170.85 356.55C170 356.55 169.31 355.86 169.31 355.01C169.31 354.16 170 353.47 170.85 353.47C171.7 353.48 172.39 354.16 172.39 355.01Z" fill="white"/>
<path d="M296.55 12.9701C297.4 12.9701 298.09 12.2806 298.09 11.4301C298.09 10.5796 297.4 9.89014 296.55 9.89014C295.699 9.89014 295.01 10.5796 295.01 11.4301C295.01 12.2806 295.699 12.9701 296.55 12.9701Z" fill="white"/>
<path d="M376.71 101.46C379.477 101.46 381.72 99.2171 381.72 96.4502C381.72 93.6832 379.477 91.4402 376.71 91.4402C373.943 91.4402 371.7 93.6832 371.7 96.4502C371.7 99.2171 373.943 101.46 376.71 101.46Z" fill="url(#paint0_linear_164_91)"/>
<path d="M376.709 105.03C381.448 105.03 385.289 101.189 385.289 96.4501C385.289 91.7115 381.448 87.8701 376.709 87.8701C371.971 87.8701 368.129 91.7115 368.129 96.4501C368.129 101.189 371.971 105.03 376.709 105.03Z" stroke="url(#paint1_linear_164_91)" stroke-miterlimit="10"/>
<path d="M267.849 343.35C267.849 346.7 265.129 349.42 261.779 349.42C258.429 349.42 255.709 346.7 255.709 343.35C255.709 340 258.429 337.28 261.779 337.28C265.129 337.28 267.849 339.99 267.849 343.35Z" stroke="url(#paint2_linear_164_91)" stroke-miterlimit="10"/>
<path d="M400.91 123.5C407.515 123.5 412.87 118.145 412.87 111.54C412.87 104.935 407.515 99.5801 400.91 99.5801C394.304 99.5801 388.95 104.935 388.95 111.54C388.95 118.145 394.304 123.5 400.91 123.5Z" fill="url(#paint3_linear_164_91)"/>
<path d="M63.3495 241.16C63.3495 244.22 60.8695 246.7 57.8095 246.7C54.7495 246.7 52.2695 244.22 52.2695 241.16C52.2695 238.1 54.7495 235.62 57.8095 235.62C60.8695 235.62 63.3495 238.1 63.3495 241.16Z" fill="url(#paint4_linear_164_91)"/>
<path d="M340.779 82.66L349.699 72.03" stroke="url(#paint5_linear_164_91)" stroke-miterlimit="10"/>
<path d="M343.519 84.95L357.529 68.26" stroke="url(#paint6_linear_164_91)" stroke-miterlimit="10"/>
<path d="M340.779 93.7801L355.169 76.6201" stroke="url(#paint7_linear_164_91)" stroke-miterlimit="10"/>
<path d="M68.6597 206.42L77.5697 195.79" stroke="url(#paint8_linear_164_91)" stroke-miterlimit="10"/>
<path d="M71.3896 208.72L85.3996 192.02" stroke="url(#paint9_linear_164_91)" stroke-miterlimit="10"/>
<path d="M68.6597 217.54L83.0397 200.38" stroke="url(#paint10_linear_164_91)" stroke-miterlimit="10"/>
<path d="M366.02 265.91L377.4 252.33" stroke="url(#paint11_linear_164_91)" stroke-miterlimit="10"/>
<path d="M369.51 268.84L387.4 247.51" stroke="url(#paint12_linear_164_91)" stroke-miterlimit="10"/>
<path d="M366.02 280.11L384.4 258.2" stroke="url(#paint13_linear_164_91)" stroke-miterlimit="10"/>
<g opacity="0.5">
<path opacity="0.5" d="M347.56 28.8501L334.2 43.7401" stroke="url(#paint14_linear_164_91)" stroke-miterlimit="10"/>
<path opacity="0.5" d="M351.39 32.29L330.41 55.68" stroke="url(#paint15_linear_164_91)" stroke-miterlimit="10"/>
<path opacity="0.5" d="M363.43 26.5901L341.87 50.6201" stroke="url(#paint16_linear_164_91)" stroke-miterlimit="10"/>
</g>
<path d="M63.3496 259.45L80.2996 239.24" stroke="url(#paint17_linear_164_91)" stroke-miterlimit="10"/>
<path d="M68.5496 263.81L95.1796 232.07" stroke="url(#paint18_linear_164_91)" stroke-miterlimit="10"/>
<path d="M63.3496 280.59L90.6996 247.97" stroke="url(#paint19_linear_164_91)" stroke-miterlimit="10"/>
<path d="M95.1796 215.62C97.0187 215.62 98.5096 214.129 98.5096 212.29C98.5096 210.451 97.0187 208.96 95.1796 208.96C93.3405 208.96 91.8496 210.451 91.8496 212.29C91.8496 214.129 93.3405 215.62 95.1796 215.62Z" fill="white"/>
<path d="M97.3695 282.21C97.3695 284.05 95.8795 285.54 94.0395 285.54C92.1995 285.54 90.7095 284.05 90.7095 282.21C90.7095 280.37 92.1995 278.88 94.0395 278.88C95.8795 278.88 97.3695 280.37 97.3695 282.21Z" fill="white"/>
<path d="M79.9296 120.71C79.9296 121.56 79.2396 122.25 78.3896 122.25C77.5396 122.25 76.8496 121.56 76.8496 120.71C76.8496 119.86 77.5396 119.17 78.3896 119.17C79.2396 119.18 79.9296 119.86 79.9296 120.71Z" fill="white"/>
<path d="M375.209 165.22C376.06 165.22 376.749 164.531 376.749 163.68C376.749 162.83 376.06 162.14 375.209 162.14C374.359 162.14 373.669 162.83 373.669 163.68C373.669 164.531 374.359 165.22 375.209 165.22Z" fill="white"/>
<path d="M390.479 302.29C390.479 303.14 389.789 303.83 388.939 303.83C388.089 303.83 387.399 303.14 387.399 302.29C387.399 301.44 388.089 300.75 388.939 300.75C389.789 300.76 390.479 301.44 390.479 302.29Z" fill="white"/>
<path d="M63.3495 99.7801C65.1887 99.7801 66.6795 98.2892 66.6795 96.4501C66.6795 94.611 65.1887 93.1201 63.3495 93.1201C61.5104 93.1201 60.0195 94.611 60.0195 96.4501C60.0195 98.2892 61.5104 99.7801 63.3495 99.7801Z" fill="white"/>
<path d="M154.019 317.88C154.019 319.72 152.529 321.21 150.689 321.21C148.849 321.21 147.359 319.72 147.359 317.88C147.359 316.04 148.849 314.55 150.689 314.55C152.529 314.55 154.019 316.04 154.019 317.88Z" fill="white"/>
<path d="M369.349 315.87C369.349 317.71 367.859 319.2 366.019 319.2C364.179 319.2 362.689 317.71 362.689 315.87C362.689 314.03 364.179 312.54 366.019 312.54C367.859 312.54 369.349 314.03 369.349 315.87Z" fill="white"/>
<path d="M426.36 217.54C426.36 219.38 424.87 220.87 423.03 220.87C421.19 220.87 419.7 219.38 419.7 217.54C419.7 215.7 421.19 214.21 423.03 214.21C424.87 214.2 426.36 215.7 426.36 217.54Z" fill="white"/>
<path d="M26.0995 171.88C27.9386 171.88 29.4295 170.389 29.4295 168.55C29.4295 166.711 27.9386 165.22 26.0995 165.22C24.2604 165.22 22.7695 166.711 22.7695 168.55C22.7695 170.389 24.2604 171.88 26.0995 171.88Z" fill="white"/>
<path d="M120.279 321.28L129.479 325.02L133.619 310.72L120.279 321.28Z" fill="#6F7AE2"/>
<path d="M95.1797 309.34L102.66 328.44L131.37 303.3L95.1797 309.34Z" fill="url(#paint20_linear_164_91)"/>
<path d="M419.25 152.09L415.24 172.21L382.56 152.5L419.25 152.09Z" fill="#6F7AE2"/>
<path d="M89.2393 75.5801L77.0693 84.1101L91.7093 91.6801L89.2393 75.5801Z" fill="#6F7AE2"/>
<path d="M387.479 185.87L373.649 180.44L375.429 196.82L387.479 185.87Z" fill="url(#paint21_linear_164_91)"/>
<path d="M260.75 40.11C247.3 32.63 230.64 27.71 215.36 32.09C203.5 35.49 194.55 44.35 187.79 54.33C180.18 65.56 174.82 78.15 169.14 90.42C165.66 97.93 161.87 105.15 156.79 111.73C151.33 118.81 144.83 125.09 137.58 130.31C130.08 135.7 121.82 139.91 113.06 142.82C103.07 146.14 92.6898 147.98 82.4398 150.3C65.5898 154.13 47.7198 160.08 36.6898 174.26C31.8098 180.53 28.9098 188.13 28.7798 196.1C28.6398 204.28 31.2598 212.34 35.3898 219.34C44.7598 235.25 61.0498 244.35 78.0498 250.18C96.2498 256.42 115.46 259.39 133.28 266.79C142.18 270.49 150.7 275.34 157.76 281.97C164.76 288.55 170.17 296.56 174.98 304.82C184.05 320.42 191.35 337.43 204.42 350.26C210.45 356.18 217.66 360.97 225.8 363.41C233.98 365.85 242.72 365.85 251.03 364.08C290.08 355.75 307.46 316.4 323.2 284.09C332 266.03 341.76 248.45 356.59 234.6C370.91 221.23 388 211.03 401.35 196.59C413.21 183.77 422.13 167.35 420.04 149.38C418.05 132.3 407.42 117.19 394.38 106.5C379.36 94.19 360.78 86.99 342.74 80.37C333.06 76.82 323.26 73.51 313.86 69.25C304.58 65.04 295.66 60.11 286.85 55.01C282.64 52.57 278.46 50.09 274.26 47.63C269.8 45.02 265.17 42.76 260.66 40.25C260.31 40.05 259.99 40.59 260.34 40.79C264.84 43.29 269.12 46.2 273.56 48.81C277.76 51.27 281.94 53.75 286.15 56.19C294.76 61.18 303.48 66 312.53 70.14C330.48 78.36 349.66 83.51 367.56 91.87C384.25 99.66 399.95 110.12 409.97 125.94C414.57 133.2 417.85 141.4 418.75 149.98C419.69 158.93 417.89 167.88 414.07 175.99C406.07 192.98 391.16 205.1 376.65 216.37C368.95 222.35 361.17 228.28 354.14 235.05C347.34 241.59 341.49 248.98 336.41 256.92C326.05 273.11 318.8 290.99 309.91 307.98C301.23 324.56 290.61 341.16 274.99 352.02C260.56 362.05 241.55 367.43 224.44 361.55C207.6 355.76 196.47 340.43 187.99 325.59C178.99 309.83 171.51 292.54 157.78 280.16C144.22 267.94 126.39 262.16 109.09 257.54C90.8098 252.66 71.7198 248.66 55.5998 238.24C41.3798 229.05 29.5598 213.15 30.1198 195.56C30.6798 177.74 45.0798 165.21 60.3198 158.49C78.6098 150.42 99.1298 149.71 117.73 142.55C133.31 136.55 147.12 126.21 157.39 113.07C166.51 101.41 171.65 87.52 178.06 74.32C183.59 62.93 189.86 51.25 199.35 42.63C209.15 33.72 221.73 30.36 234.77 32.18C243.76 33.43 252.31 36.63 260.26 40.96C260.8 41.23 261.28 40.41 260.75 40.11Z" fill="url(#paint22_linear_164_91)"/>
<g opacity="0.4248">
<path opacity="0.4248" d="M265.95 11.15C250.57 2.60001 231.51 -3.01998 214.04 2.00002C200.49 5.89002 190.26 16.02 182.54 27.42C173.83 40.28 167.7 54.69 161.19 68.73C157.2 77.34 152.86 85.6 147.05 93.14C140.8 101.25 133.35 108.46 125.03 114.43C116.44 120.61 106.97 125.43 96.9398 128.76C85.5098 132.56 73.6198 134.66 61.8898 137.33C42.6198 141.71 22.1698 148.51 9.54977 164.73C3.97977 171.89 0.679772 180.57 0.519772 189.67C0.359772 199.02 3.35977 208.22 8.06977 216.22C18.7798 234.41 37.4098 244.82 56.8498 251.48C77.6898 258.62 99.6798 262.02 120.08 270.49C130.29 274.73 140.06 280.29 148.15 287.89C156.17 295.42 162.37 304.6 167.88 314.07C178.25 331.92 186.61 351.39 201.57 366.07C208.46 372.84 216.69 378.31 226 381.1C235.35 383.89 245.33 383.89 254.83 381.87C299.5 372.34 319.38 327.31 337.39 290.34C347.47 269.66 358.64 249.52 375.64 233.66C392.04 218.36 411.6 206.68 426.88 190.15C440.44 175.49 450.64 156.72 448.24 136.17C445.96 116.65 433.8 99.37 418.89 87.15C401.71 73.07 380.45 64.83 359.82 57.26C348.73 53.19 337.5 49.4 326.73 44.52C316.11 39.7 305.89 34.06 295.81 28.21C290.99 25.42 286.2 22.58 281.4 19.76C276.3 16.77 271.02 14.14 265.86 11.27C265.51 11.07 265.19 11.61 265.54 11.81C270.69 14.67 275.62 17.96 280.71 20.94C285.51 23.76 290.31 26.59 295.12 29.39C304.97 35.1 314.95 40.62 325.31 45.36C345.86 54.77 367.82 60.66 388.31 70.23C407.43 79.16 425.41 91.14 436.9 109.26C442.17 117.58 445.93 126.99 446.96 136.83C448.04 147.1 445.97 157.35 441.58 166.66C432.41 186.12 415.34 200 398.73 212.91C389.91 219.76 381.01 226.54 372.96 234.29C365.18 241.77 358.49 250.23 352.68 259.31C340.82 277.85 332.52 298.32 322.34 317.77C312.39 336.77 300.23 355.78 282.33 368.22C265.79 379.71 243.99 385.88 224.38 379.13C205.08 372.49 192.31 354.93 182.59 337.91C172.29 319.88 163.73 300.09 148.02 285.92C132.51 271.94 112.11 265.33 92.3198 260.05C71.3898 254.46 49.5198 249.87 31.0698 237.95C14.7698 227.42 1.21977 209.18 1.84977 189.01C2.48977 168.58 18.9998 154.2 36.4698 146.49C57.4098 137.25 80.9198 136.44 102.22 128.23C120.03 121.37 135.83 109.53 147.58 94.51C158.02 81.16 163.9 65.27 171.23 50.17C177.57 37.12 184.75 23.75 195.62 13.87C206.87 3.65001 221.29 -0.19999 236.26 1.90001C246.56 3.34001 256.35 7.00002 265.45 11.97C266.01 12.26 266.49 11.44 265.95 11.15Z" fill="url(#paint23_linear_164_91)"/>
</g>
<path d="M338.33 237.28C350.11 224.55 365.01 215.41 377.87 203.89C389.08 193.85 399.38 181.09 401.9 165.84C404.32 151.12 398.6 136.64 389.37 125.33C379.09 112.73 364.78 104.55 350.04 98.19C333.93 91.24 316.92 86.51 301.12 78.83C285.38 71.17 270.92 61.25 255.41 53.2C243.66 47.1 229.23 43.37 216.16 47.14C206.1 50.04 198.3 57.28 192.32 65.62C185.49 75.14 180.68 85.96 175.81 96.55C173.02 102.63 170.29 108.73 166.62 114.35C162.51 120.63 157.54 126.34 151.91 131.3C146.14 136.39 139.66 140.67 132.72 143.98C124.73 147.79 116.14 150.02 107.53 151.93C91.8696 155.4 75.5496 158.2 62.3996 168.06C56.8696 172.21 52.0896 177.49 49.2996 183.88C46.5096 190.26 45.9496 197.33 47.3596 204.13C50.3896 218.71 61.0897 230.45 73.7197 237.69C102.26 254.06 140.16 251.25 164.68 275.15C176.58 286.75 183.03 302.37 191.33 316.46C198.7 328.98 208.19 341.43 222.06 347.06C236.21 352.81 252.33 349.81 265.36 342.59C279.45 334.79 289.77 321.91 297.87 308.27C299.91 304.83 301.83 301.33 303.67 297.78C305.57 294.13 307.03 290.31 308.82 286.61C308.99 286.25 308.46 285.93 308.28 286.29C306.51 289.96 304.37 293.47 302.49 297.08C300.6 300.71 298.64 304.31 296.54 307.83C292.41 314.76 287.78 321.41 282.3 327.34C271.73 338.78 257.48 347.38 241.69 348.6C234.1 349.19 226.44 347.9 219.61 344.48C212.94 341.14 207.32 336.09 202.56 330.4C192.53 318.41 186.53 303.83 178.37 290.62C174.31 284.05 169.67 277.77 163.92 272.58C158.14 267.36 151.37 263.36 144.27 260.23C129.68 253.79 113.93 250.89 98.7096 246.36C83.5496 241.85 68.1397 235.4 57.9697 222.76C48.7597 211.31 44.3896 195.35 51.8296 181.84C59.0496 168.73 73.7196 161.75 87.5596 157.94C103.75 153.48 120.72 151.79 135.82 143.96C148.56 137.36 159.57 127.45 167.49 115.49C174.25 105.29 178.42 93.51 183.9 82.61C188.74 73 194.33 63.26 202.57 56.14C211.11 48.76 221.9 45.97 233.03 47.37C249.64 49.45 263.68 59.36 277.79 67.6C285.22 71.94 292.71 76.2 300.46 79.96C307.93 83.59 315.63 86.54 323.43 89.37C352.45 99.94 387.85 112.15 398.77 144.45C401.18 151.57 401.89 159.19 400.48 166.59C399.04 174.13 395.61 181.13 391.2 187.37C381.78 200.73 368.34 210.19 355.7 220.23C349.33 225.29 343.13 230.57 337.66 236.6C337.25 237.06 337.92 237.73 338.33 237.28Z" fill="url(#paint24_linear_164_91)"/>
<defs>
<linearGradient id="paint0_linear_164_91" x1="371.704" y1="96.4542" x2="381.714" y2="96.4542" gradientUnits="userSpaceOnUse">
<stop offset="0.0277" stop-color="#B5C3E6"/>
<stop offset="1" stop-color="#F2F2F2"/>
</linearGradient>
<linearGradient id="paint1_linear_164_91" x1="367.626" y1="96.4541" x2="385.791" y2="96.4541" gradientUnits="userSpaceOnUse">
<stop offset="0.0277" stop-color="#6AA2CB"/>
<stop offset="0.7154" stop-color="#E8DCC6"/>
<stop offset="1" stop-color="#ECEBFF"/>
</linearGradient>
<linearGradient id="paint2_linear_164_91" x1="255.207" y1="343.346" x2="268.344" y2="343.346" gradientUnits="userSpaceOnUse">
<stop offset="0.0277" stop-color="#D2D9DC"/>
<stop offset="1" stop-color="#F9FAFB"/>
</linearGradient>
<linearGradient id="paint3_linear_164_91" x1="388.945" y1="111.544" x2="412.871" y2="111.544" gradientUnits="userSpaceOnUse">
<stop offset="0.0277" stop-color="#5D91C0"/>
<stop offset="1" stop-color="#8794D3"/>
</linearGradient>
<linearGradient id="paint4_linear_164_91" x1="52.2771" y1="241.157" x2="63.349" y2="241.157" gradientUnits="userSpaceOnUse">
<stop offset="0.0277" stop-color="#69D1FD"/>
<stop offset="0.7154" stop-color="#97B5EE"/>
<stop offset="1" stop-color="#DEDEEF"/>
</linearGradient>
<linearGradient id="paint5_linear_164_91" x1="340.004" y1="77.8026" x2="350.479" y2="76.8846" gradientUnits="userSpaceOnUse">
<stop offset="0.0277" stop-color="#F0F0F0"/>
<stop offset="1" stop-color="#B3C6CE"/>
</linearGradient>
<linearGradient id="paint6_linear_164_91" x1="342.496" y1="77.3085" x2="358.552" y2="75.9016" gradientUnits="userSpaceOnUse">
<stop offset="0.0277" stop-color="#BCC7D4"/>
<stop offset="1" stop-color="#A1ABB8"/>
</linearGradient>
<linearGradient id="paint7_linear_164_91" x1="339.741" y1="85.921" x2="356.217" y2="84.4772" gradientUnits="userSpaceOnUse">
<stop offset="0.0277" stop-color="#E5F1F3"/>
<stop offset="1" stop-color="#E5E5E5"/>
</linearGradient>
<linearGradient id="paint8_linear_164_91" x1="68.2721" y1="201.105" x2="77.9529" y2="201.105" gradientUnits="userSpaceOnUse">
<stop offset="0.0277" stop-color="#8EC7CE"/>
<stop offset="1" stop-color="#8793FF"/>
</linearGradient>
<linearGradient id="paint9_linear_164_91" x1="71.0094" y1="200.367" x2="85.781" y2="200.367" gradientUnits="userSpaceOnUse">
<stop offset="0.0277" stop-color="#B1D6E6"/>
<stop offset="1" stop-color="#7DB9FF"/>
</linearGradient>
<linearGradient id="paint10_linear_164_91" x1="68.2721" y1="208.961" x2="83.4276" y2="208.961" gradientUnits="userSpaceOnUse">
<stop offset="0.0277" stop-color="#D8E8F1"/>
<stop offset="1" stop-color="#71A4D7"/>
</linearGradient>
<linearGradient id="paint11_linear_164_91" x1="365.116" y1="259.698" x2="378.302" y2="258.543" gradientUnits="userSpaceOnUse">
<stop offset="0.0277" stop-color="#D5DDEA"/>
<stop offset="0.7154" stop-color="#A6ABBB"/>
<stop offset="1" stop-color="#F5F5F5"/>
</linearGradient>
<linearGradient id="paint12_linear_164_91" x1="368.3" y1="259.067" x2="388.614" y2="257.287" gradientUnits="userSpaceOnUse">
<stop offset="0.0277" stop-color="white"/>
<stop offset="0.7154" stop-color="#DBDBDB"/>
<stop offset="1" stop-color="#D5DFE0"/>
</linearGradient>
<linearGradient id="paint13_linear_164_91" x1="364.78" y1="270.069" x2="385.631" y2="268.242" gradientUnits="userSpaceOnUse">
<stop offset="0.0277" stop-color="white"/>
<stop offset="0.7154" stop-color="#EBF7FA"/>
<stop offset="1" stop-color="#EEF8FF"/>
</linearGradient>
<linearGradient id="paint14_linear_164_91" x1="340.477" y1="28.8835" x2="341.281" y2="43.7123" gradientUnits="userSpaceOnUse">
<stop offset="0.0277" stop-color="#AAC2DF"/>
<stop offset="1" stop-color="#75ABEB"/>
</linearGradient>
<linearGradient id="paint15_linear_164_91" x1="340.279" y1="32.5427" x2="341.52" y2="55.4367" gradientUnits="userSpaceOnUse">
<stop offset="0.0277" stop-color="#D4E7EF"/>
<stop offset="1" stop-color="#D7E7F9"/>
</linearGradient>
<linearGradient id="paint16_linear_164_91" x1="352.014" y1="26.8571" x2="353.287" y2="50.3589" gradientUnits="userSpaceOnUse">
<stop offset="0.0277" stop-color="#E5E8EB"/>
<stop offset="1" stop-color="#65AECD"/>
</linearGradient>
<linearGradient id="paint17_linear_164_91" x1="62.1828" y1="250.19" x2="81.4624" y2="248.501" gradientUnits="userSpaceOnUse">
<stop offset="0.0277" stop-color="#F9F9F9"/>
<stop offset="1" stop-color="#BED7F0"/>
</linearGradient>
<linearGradient id="paint18_linear_164_91" x1="66.9219" y1="249.251" x2="96.8092" y2="246.632" gradientUnits="userSpaceOnUse">
<stop offset="0.0277" stop-color="#C8C8C8"/>
<stop offset="1" stop-color="#FAFDFF"/>
</linearGradient>
<linearGradient id="paint19_linear_164_91" x1="61.683" y1="265.624" x2="92.3701" y2="262.935" gradientUnits="userSpaceOnUse">
<stop offset="0.0277" stop-color="white"/>
<stop offset="1" stop-color="#85A9CC"/>
</linearGradient>
<linearGradient id="paint20_linear_164_91" x1="95.1783" y1="315.871" x2="131.37" y2="315.871" gradientUnits="userSpaceOnUse">
<stop offset="0.0277" stop-color="#97BCD8"/>
<stop offset="1" stop-color="#CFCBF2"/>
</linearGradient>
<linearGradient id="paint21_linear_164_91" x1="371.963" y1="182.189" x2="381.841" y2="191.716" gradientUnits="userSpaceOnUse">
<stop offset="0.0277" stop-color="#B0B7D3"/>
<stop offset="1" stop-color="#4F7E88"/>
</linearGradient>
<linearGradient id="paint22_linear_164_91" x1="50.9678" y1="264.714" x2="415.254" y2="132.124" gradientUnits="userSpaceOnUse">
<stop offset="0.0277" stop-color="#7DA4B1"/>
<stop offset="1" stop-color="#68A1B6"/>
</linearGradient>
<linearGradient id="paint23_linear_164_91" x1="0.518572" y1="191.707" x2="448.597" y2="191.707" gradientUnits="userSpaceOnUse">
<stop stop-color="#5C5A44"/>
<stop offset="0.6103" stop-color="#3F4541"/>
<stop offset="1" stop-color="#313C40"/>
</linearGradient>
<linearGradient id="paint24_linear_164_91" x1="139.23" y1="90.5072" x2="329.927" y2="281.204" gradientUnits="userSpaceOnUse">
<stop stop-color="#30A1CA"/>
<stop offset="1" stop-color="#98ABCF"/>
</linearGradient>
</defs>
</svg>
