<svg width="1592" height="1403" viewBox="0 0 1592 1403" fill="none" xmlns="http://www.w3.org/2000/svg">
<path d="M72.3232 1388L58 1402.3H86.6244L72.3232 1388Z" fill="#89CAEA" fill-opacity="0.42"/>
<path d="M115.184 1388L100.883 1402.3H129.507L115.184 1388Z" fill="#89CAEA" fill-opacity="0.42"/>
<path d="M158.064 1388L143.763 1402.3H172.387L158.064 1388Z" fill="#89CAEA" fill-opacity="0.42"/>
<path d="M200.947 1388L186.646 1402.3H215.248L200.947 1388Z" fill="#89CAEA" fill-opacity="0.42"/>
<path d="M243.83 1388L229.528 1402.3H258.131L243.83 1388Z" fill="#89CAEA" fill-opacity="0.42"/>
<path d="M286.71 1388L272.409 1402.3H301.012L286.71 1388Z" fill="#89CAEA" fill-opacity="0.42"/>
<path d="M115.184 1344.2L100.883 1358.5H129.507L115.184 1344.2Z" fill="#89CAEA" fill-opacity="0.42"/>
<path d="M158.067 1344.2L143.766 1358.5H172.39L158.067 1344.2Z" fill="#89CAEA" fill-opacity="0.42"/>
<path d="M200.948 1344.2L186.646 1358.5H215.249L200.948 1344.2Z" fill="#89CAEA" fill-opacity="0.42"/>
<path d="M243.83 1344.2L229.528 1358.5H258.131L243.83 1344.2Z" fill="#89CAEA" fill-opacity="0.42"/>
<path d="M158.065 1300.42L143.764 1314.72H172.388L158.065 1300.42Z" fill="#89CAEA" fill-opacity="0.42"/>
<path d="M200.948 1300.42L186.646 1314.72H215.249L200.948 1300.42Z" fill="#89CAEA" fill-opacity="0.42"/>
<path d="M93.7515 1364.84L79.4502 1379.14H108.053L93.7515 1364.84Z" fill="#89CAEA" fill-opacity="0.42"/>
<path d="M136.634 1364.84L122.333 1379.14H150.935L136.634 1364.84Z" fill="#89CAEA" fill-opacity="0.42"/>
<path d="M179.515 1364.84L165.214 1379.14H193.816L179.515 1364.84Z" fill="#89CAEA" fill-opacity="0.42"/>
<path d="M222.397 1364.84L208.096 1379.14H236.698L222.397 1364.84Z" fill="#89CAEA" fill-opacity="0.42"/>
<path d="M265.28 1364.84L250.979 1379.14H279.581L265.28 1364.84Z" fill="#89CAEA" fill-opacity="0.42"/>
<path d="M136.635 1322.31L122.334 1336.61H150.936L136.635 1322.31Z" fill="#89CAEA" fill-opacity="0.42"/>
<path d="M179.518 1322.31L165.217 1336.61H193.819L179.518 1322.31Z" fill="#89CAEA" fill-opacity="0.42"/>
<path d="M222.399 1322.31L208.098 1336.61H236.7L222.399 1322.31Z" fill="#89CAEA" fill-opacity="0.42"/>
<path d="M179.518 1277L165.217 1291.3H193.819L179.518 1277Z" fill="#89CAEA" fill-opacity="0.42"/>
<path d="M1318.69 3.37999C1319.62 3.37999 1320.38 2.62335 1320.38 1.68999C1320.38 0.756626 1319.62 0 1318.69 0C1317.76 0 1317 0.756626 1317 1.68999C1317 2.62335 1317.76 3.37999 1318.69 3.37999Z" fill="url(#paint0_linear_23_29)" fill-opacity="0.53"/>
<path d="M1333.89 3.37999C1334.82 3.37999 1335.58 2.62335 1335.58 1.68999C1335.58 0.756626 1334.82 0 1333.89 0C1332.96 0 1332.2 0.756626 1332.2 1.68999C1332.2 2.62335 1332.96 3.37999 1333.89 3.37999Z" fill="url(#paint1_linear_23_29)" fill-opacity="0.53"/>
<path d="M1349.09 3.37999C1350.02 3.37999 1350.78 2.62335 1350.78 1.68999C1350.78 0.756626 1350.02 0 1349.09 0C1348.16 0 1347.4 0.756626 1347.4 1.68999C1347.4 2.62335 1348.16 3.37999 1349.09 3.37999Z" fill="url(#paint2_linear_23_29)" fill-opacity="0.53"/>
<path d="M1365.98 1.68999C1365.98 2.61999 1365.22 3.37999 1364.29 3.37999C1363.36 3.37999 1362.6 2.61999 1362.6 1.68999C1362.6 0.759987 1363.36 0 1364.29 0C1365.22 0 1365.98 0.759987 1365.98 1.68999Z" fill="url(#paint3_linear_23_29)" fill-opacity="0.53"/>
<path d="M1381.18 1.68999C1381.18 2.61999 1380.42 3.37999 1379.49 3.37999C1378.56 3.37999 1377.8 2.61999 1377.8 1.68999C1377.8 0.759987 1378.56 0 1379.49 0C1380.42 0 1381.18 0.759987 1381.18 1.68999Z" fill="url(#paint4_linear_23_29)" fill-opacity="0.53"/>
<path d="M1394.69 3.37999C1395.62 3.37999 1396.38 2.62335 1396.38 1.68999C1396.38 0.756626 1395.62 0 1394.69 0C1393.76 0 1393 0.756626 1393 1.68999C1393 2.62335 1393.76 3.37999 1394.69 3.37999Z" fill="url(#paint5_linear_23_29)" fill-opacity="0.53"/>
<path d="M1409.89 3.37999C1410.82 3.37999 1411.58 2.62335 1411.58 1.68999C1411.58 0.756626 1410.82 0 1409.89 0C1408.96 0 1408.2 0.756626 1408.2 1.68999C1408.2 2.62335 1408.96 3.37999 1409.89 3.37999Z" fill="url(#paint6_linear_23_29)" fill-opacity="0.53"/>
<path d="M1425.09 3.37999C1426.02 3.37999 1426.78 2.62335 1426.78 1.68999C1426.78 0.756626 1426.02 0 1425.09 0C1424.16 0 1423.4 0.756626 1423.4 1.68999C1423.4 2.62335 1424.16 3.37999 1425.09 3.37999Z" fill="url(#paint7_linear_23_29)" fill-opacity="0.53"/>
<path d="M1440.29 3.37999C1441.22 3.37999 1441.98 2.62335 1441.98 1.68999C1441.98 0.756626 1441.22 0 1440.29 0C1439.36 0 1438.6 0.756626 1438.6 1.68999C1438.6 2.62335 1439.36 3.37999 1440.29 3.37999Z" fill="url(#paint8_linear_23_29)" fill-opacity="0.53"/>
<path d="M1455.49 3.37999C1456.42 3.37999 1457.18 2.62335 1457.18 1.68999C1457.18 0.756626 1456.42 0 1455.49 0C1454.56 0 1453.8 0.756626 1453.8 1.68999C1453.8 2.62335 1454.56 3.37999 1455.49 3.37999Z" fill="url(#paint9_linear_23_29)" fill-opacity="0.53"/>
<path d="M1470.69 3.37999C1471.62 3.37999 1472.38 2.62335 1472.38 1.68999C1472.38 0.756626 1471.62 0 1470.69 0C1469.76 0 1469 0.756626 1469 1.68999C1469 2.62335 1469.76 3.37999 1470.69 3.37999Z" fill="url(#paint10_linear_23_29)" fill-opacity="0.53"/>
<path d="M1318.69 16.8898C1319.62 16.8898 1320.38 16.1331 1320.38 15.1998C1320.38 14.2664 1319.62 13.5098 1318.69 13.5098C1317.76 13.5098 1317 14.2664 1317 15.1998C1317 16.1331 1317.76 16.8898 1318.69 16.8898Z" fill="url(#paint11_linear_23_29)" fill-opacity="0.53"/>
<path d="M1333.89 16.8898C1334.82 16.8898 1335.58 16.1331 1335.58 15.1998C1335.58 14.2664 1334.82 13.5098 1333.89 13.5098C1332.96 13.5098 1332.2 14.2664 1332.2 15.1998C1332.2 16.1331 1332.96 16.8898 1333.89 16.8898Z" fill="url(#paint12_linear_23_29)" fill-opacity="0.53"/>
<path d="M1349.09 16.8898C1350.02 16.8898 1350.78 16.1331 1350.78 15.1998C1350.78 14.2664 1350.02 13.5098 1349.09 13.5098C1348.16 13.5098 1347.4 14.2664 1347.4 15.1998C1347.4 16.1331 1348.16 16.8898 1349.09 16.8898Z" fill="url(#paint13_linear_23_29)" fill-opacity="0.53"/>
<path d="M1365.98 15.1998C1365.98 16.1298 1365.22 16.8898 1364.29 16.8898C1363.36 16.8898 1362.6 16.1298 1362.6 15.1998C1362.6 14.2698 1363.36 13.5098 1364.29 13.5098C1365.22 13.5098 1365.98 14.2698 1365.98 15.1998Z" fill="url(#paint14_linear_23_29)" fill-opacity="0.53"/>
<path d="M1381.18 15.1998C1381.18 16.1298 1380.42 16.8898 1379.49 16.8898C1378.56 16.8898 1377.8 16.1298 1377.8 15.1998C1377.8 14.2698 1378.56 13.5098 1379.49 13.5098C1380.42 13.5098 1381.18 14.2698 1381.18 15.1998Z" fill="url(#paint15_linear_23_29)" fill-opacity="0.53"/>
<path d="M1394.69 16.8898C1395.62 16.8898 1396.38 16.1331 1396.38 15.1998C1396.38 14.2664 1395.62 13.5098 1394.69 13.5098C1393.76 13.5098 1393 14.2664 1393 15.1998C1393 16.1331 1393.76 16.8898 1394.69 16.8898Z" fill="url(#paint16_linear_23_29)" fill-opacity="0.53"/>
<path d="M1409.89 16.8898C1410.82 16.8898 1411.58 16.1331 1411.58 15.1998C1411.58 14.2664 1410.82 13.5098 1409.89 13.5098C1408.96 13.5098 1408.2 14.2664 1408.2 15.1998C1408.2 16.1331 1408.96 16.8898 1409.89 16.8898Z" fill="url(#paint17_linear_23_29)" fill-opacity="0.53"/>
<path d="M1425.09 16.8898C1426.02 16.8898 1426.78 16.1331 1426.78 15.1998C1426.78 14.2664 1426.02 13.5098 1425.09 13.5098C1424.16 13.5098 1423.4 14.2664 1423.4 15.1998C1423.4 16.1331 1424.16 16.8898 1425.09 16.8898Z" fill="url(#paint18_linear_23_29)" fill-opacity="0.53"/>
<path d="M1440.29 16.8898C1441.22 16.8898 1441.98 16.1331 1441.98 15.1998C1441.98 14.2664 1441.22 13.5098 1440.29 13.5098C1439.36 13.5098 1438.6 14.2664 1438.6 15.1998C1438.6 16.1331 1439.36 16.8898 1440.29 16.8898Z" fill="url(#paint19_linear_23_29)" fill-opacity="0.53"/>
<path d="M1455.49 16.8898C1456.42 16.8898 1457.18 16.1331 1457.18 15.1998C1457.18 14.2664 1456.42 13.5098 1455.49 13.5098C1454.56 13.5098 1453.8 14.2664 1453.8 15.1998C1453.8 16.1331 1454.56 16.8898 1455.49 16.8898Z" fill="url(#paint20_linear_23_29)" fill-opacity="0.53"/>
<path d="M1470.69 16.8898C1471.62 16.8898 1472.38 16.1331 1472.38 15.1998C1472.38 14.2664 1471.62 13.5098 1470.69 13.5098C1469.76 13.5098 1469 14.2664 1469 15.1998C1469 16.1331 1469.76 16.8898 1470.69 16.8898Z" fill="url(#paint21_linear_23_29)" fill-opacity="0.53"/>
<path d="M1318.69 30.3995C1319.62 30.3995 1320.38 29.6429 1320.38 28.7095C1320.38 27.7762 1319.62 27.0195 1318.69 27.0195C1317.76 27.0195 1317 27.7762 1317 28.7095C1317 29.6429 1317.76 30.3995 1318.69 30.3995Z" fill="url(#paint22_linear_23_29)" fill-opacity="0.53"/>
<path d="M1333.89 30.3995C1334.82 30.3995 1335.58 29.6429 1335.58 28.7095C1335.58 27.7762 1334.82 27.0195 1333.89 27.0195C1332.96 27.0195 1332.2 27.7762 1332.2 28.7095C1332.2 29.6429 1332.96 30.3995 1333.89 30.3995Z" fill="url(#paint23_linear_23_29)" fill-opacity="0.53"/>
<path d="M1349.09 30.3995C1350.02 30.3995 1350.78 29.6429 1350.78 28.7095C1350.78 27.7762 1350.02 27.0195 1349.09 27.0195C1348.16 27.0195 1347.4 27.7762 1347.4 28.7095C1347.4 29.6429 1348.16 30.3995 1349.09 30.3995Z" fill="url(#paint24_linear_23_29)" fill-opacity="0.53"/>
<path d="M1365.98 28.7095C1365.98 29.6395 1365.22 30.3995 1364.29 30.3995C1363.36 30.3995 1362.6 29.6395 1362.6 28.7095C1362.6 27.7795 1363.36 27.0195 1364.29 27.0195C1365.22 27.0195 1365.98 27.7795 1365.98 28.7095Z" fill="url(#paint25_linear_23_29)" fill-opacity="0.53"/>
<path d="M1381.18 28.7095C1381.18 29.6395 1380.42 30.3995 1379.49 30.3995C1378.56 30.3995 1377.8 29.6395 1377.8 28.7095C1377.8 27.7795 1378.56 27.0195 1379.49 27.0195C1380.42 27.0195 1381.18 27.7795 1381.18 28.7095Z" fill="url(#paint26_linear_23_29)" fill-opacity="0.53"/>
<path d="M1394.69 30.3995C1395.62 30.3995 1396.38 29.6429 1396.38 28.7095C1396.38 27.7762 1395.62 27.0195 1394.69 27.0195C1393.76 27.0195 1393 27.7762 1393 28.7095C1393 29.6429 1393.76 30.3995 1394.69 30.3995Z" fill="url(#paint27_linear_23_29)" fill-opacity="0.53"/>
<path d="M1409.89 30.3995C1410.82 30.3995 1411.58 29.6429 1411.58 28.7095C1411.58 27.7762 1410.82 27.0195 1409.89 27.0195C1408.96 27.0195 1408.2 27.7762 1408.2 28.7095C1408.2 29.6429 1408.96 30.3995 1409.89 30.3995Z" fill="url(#paint28_linear_23_29)" fill-opacity="0.53"/>
<path d="M1425.09 30.3995C1426.02 30.3995 1426.78 29.6429 1426.78 28.7095C1426.78 27.7762 1426.02 27.0195 1425.09 27.0195C1424.16 27.0195 1423.4 27.7762 1423.4 28.7095C1423.4 29.6429 1424.16 30.3995 1425.09 30.3995Z" fill="url(#paint29_linear_23_29)" fill-opacity="0.53"/>
<path d="M1440.29 30.3995C1441.22 30.3995 1441.98 29.6429 1441.98 28.7095C1441.98 27.7762 1441.22 27.0195 1440.29 27.0195C1439.36 27.0195 1438.6 27.7762 1438.6 28.7095C1438.6 29.6429 1439.36 30.3995 1440.29 30.3995Z" fill="url(#paint30_linear_23_29)" fill-opacity="0.53"/>
<path d="M1455.49 30.3995C1456.42 30.3995 1457.18 29.6429 1457.18 28.7095C1457.18 27.7762 1456.42 27.0195 1455.49 27.0195C1454.56 27.0195 1453.8 27.7762 1453.8 28.7095C1453.8 29.6429 1454.56 30.3995 1455.49 30.3995Z" fill="url(#paint31_linear_23_29)" fill-opacity="0.53"/>
<path d="M1470.69 30.3995C1471.62 30.3995 1472.38 29.6429 1472.38 28.7095C1472.38 27.7762 1471.62 27.0195 1470.69 27.0195C1469.76 27.0195 1469 27.7762 1469 28.7095C1469 29.6429 1469.76 30.3995 1470.69 30.3995Z" fill="url(#paint32_linear_23_29)" fill-opacity="0.53"/>
<path d="M1320.38 42.2203C1320.38 43.1503 1319.62 43.9103 1318.69 43.9103C1317.76 43.9103 1317 43.1503 1317 42.2203C1317 41.2903 1317.76 40.5303 1318.69 40.5303C1319.62 40.5303 1320.38 41.2903 1320.38 42.2203Z" fill="url(#paint33_linear_23_29)" fill-opacity="0.53"/>
<path d="M1335.58 42.2203C1335.58 43.1503 1334.82 43.9103 1333.89 43.9103C1332.96 43.9103 1332.2 43.1503 1332.2 42.2203C1332.2 41.2903 1332.96 40.5303 1333.89 40.5303C1334.82 40.5303 1335.58 41.2903 1335.58 42.2203Z" fill="url(#paint34_linear_23_29)" fill-opacity="0.53"/>
<path d="M1350.78 42.2203C1350.78 43.1503 1350.02 43.9103 1349.09 43.9103C1348.16 43.9103 1347.4 43.1503 1347.4 42.2203C1347.4 41.2903 1348.16 40.5303 1349.09 40.5303C1350.02 40.5303 1350.78 41.2903 1350.78 42.2203Z" fill="url(#paint35_linear_23_29)" fill-opacity="0.53"/>
<path d="M1365.98 42.2203C1365.98 43.1503 1365.22 43.9103 1364.29 43.9103C1363.36 43.9103 1362.6 43.1503 1362.6 42.2203C1362.6 41.2903 1363.36 40.5303 1364.29 40.5303C1365.22 40.5303 1365.98 41.2903 1365.98 42.2203Z" fill="url(#paint36_linear_23_29)" fill-opacity="0.53"/>
<path d="M1381.18 42.2203C1381.18 43.1503 1380.42 43.9103 1379.49 43.9103C1378.56 43.9103 1377.8 43.1503 1377.8 42.2203C1377.8 41.2903 1378.56 40.5303 1379.49 40.5303C1380.42 40.5303 1381.18 41.2903 1381.18 42.2203Z" fill="url(#paint37_linear_23_29)" fill-opacity="0.53"/>
<path d="M1396.38 42.2203C1396.38 43.1503 1395.62 43.9103 1394.69 43.9103C1393.76 43.9103 1393 43.1503 1393 42.2203C1393 41.2903 1393.76 40.5303 1394.69 40.5303C1395.62 40.5303 1396.38 41.2903 1396.38 42.2203Z" fill="url(#paint38_linear_23_29)" fill-opacity="0.53"/>
<path d="M1411.58 42.2203C1411.58 43.1503 1410.82 43.9103 1409.89 43.9103C1408.96 43.9103 1408.2 43.1503 1408.2 42.2203C1408.2 41.2903 1408.96 40.5303 1409.89 40.5303C1410.82 40.5303 1411.58 41.2903 1411.58 42.2203Z" fill="url(#paint39_linear_23_29)" fill-opacity="0.53"/>
<path d="M1426.78 42.2203C1426.78 43.1503 1426.02 43.9103 1425.09 43.9103C1424.16 43.9103 1423.4 43.1503 1423.4 42.2203C1423.4 41.2903 1424.16 40.5303 1425.09 40.5303C1426.02 40.5303 1426.78 41.2903 1426.78 42.2203Z" fill="url(#paint40_linear_23_29)" fill-opacity="0.53"/>
<path d="M1441.98 42.2203C1441.98 43.1503 1441.22 43.9103 1440.29 43.9103C1439.36 43.9103 1438.6 43.1503 1438.6 42.2203C1438.6 41.2903 1439.36 40.5303 1440.29 40.5303C1441.22 40.5303 1441.98 41.2903 1441.98 42.2203Z" fill="url(#paint41_linear_23_29)" fill-opacity="0.53"/>
<path d="M1457.18 42.2203C1457.18 43.1503 1456.42 43.9103 1455.49 43.9103C1454.56 43.9103 1453.8 43.1503 1453.8 42.2203C1453.8 41.2903 1454.56 40.5303 1455.49 40.5303C1456.42 40.5303 1457.18 41.2903 1457.18 42.2203Z" fill="url(#paint42_linear_23_29)" fill-opacity="0.53"/>
<path d="M1472.38 42.2203C1472.38 43.1503 1471.62 43.9103 1470.69 43.9103C1469.76 43.9103 1469 43.1503 1469 42.2203C1469 41.2903 1469.76 40.5303 1470.69 40.5303C1471.62 40.5303 1472.38 41.2903 1472.38 42.2203Z" fill="url(#paint43_linear_23_29)" fill-opacity="0.53"/>
<path d="M1320.38 55.73C1320.38 56.66 1319.62 57.42 1318.69 57.42C1317.76 57.42 1317 56.66 1317 55.73C1317 54.8 1317.76 54.04 1318.69 54.04C1319.62 54.04 1320.38 54.8 1320.38 55.73Z" fill="url(#paint44_linear_23_29)" fill-opacity="0.53"/>
<path d="M1335.58 55.73C1335.58 56.66 1334.82 57.42 1333.89 57.42C1332.96 57.42 1332.2 56.66 1332.2 55.73C1332.2 54.8 1332.96 54.04 1333.89 54.04C1334.82 54.04 1335.58 54.8 1335.58 55.73Z" fill="url(#paint45_linear_23_29)" fill-opacity="0.53"/>
<path d="M1350.78 55.73C1350.78 56.66 1350.02 57.42 1349.09 57.42C1348.16 57.42 1347.4 56.66 1347.4 55.73C1347.4 54.8 1348.16 54.04 1349.09 54.04C1350.02 54.04 1350.78 54.8 1350.78 55.73Z" fill="url(#paint46_linear_23_29)" fill-opacity="0.53"/>
<path d="M1365.98 55.73C1365.98 56.66 1365.22 57.42 1364.29 57.42C1363.36 57.42 1362.6 56.66 1362.6 55.73C1362.6 54.8 1363.36 54.04 1364.29 54.04C1365.22 54.04 1365.98 54.8 1365.98 55.73Z" fill="url(#paint47_linear_23_29)" fill-opacity="0.53"/>
<path d="M1381.18 55.73C1381.18 56.66 1380.42 57.42 1379.49 57.42C1378.56 57.42 1377.8 56.66 1377.8 55.73C1377.8 54.8 1378.56 54.04 1379.49 54.04C1380.42 54.04 1381.18 54.8 1381.18 55.73Z" fill="url(#paint48_linear_23_29)" fill-opacity="0.53"/>
<path d="M1396.38 55.73C1396.38 56.66 1395.62 57.42 1394.69 57.42C1393.76 57.42 1393 56.66 1393 55.73C1393 54.8 1393.76 54.04 1394.69 54.04C1395.62 54.04 1396.38 54.8 1396.38 55.73Z" fill="url(#paint49_linear_23_29)" fill-opacity="0.53"/>
<path d="M1411.58 55.73C1411.58 56.66 1410.82 57.42 1409.89 57.42C1408.96 57.42 1408.2 56.66 1408.2 55.73C1408.2 54.8 1408.96 54.04 1409.89 54.04C1410.82 54.04 1411.58 54.8 1411.58 55.73Z" fill="url(#paint50_linear_23_29)" fill-opacity="0.53"/>
<path d="M1426.78 55.73C1426.78 56.66 1426.02 57.42 1425.09 57.42C1424.16 57.42 1423.4 56.66 1423.4 55.73C1423.4 54.8 1424.16 54.04 1425.09 54.04C1426.02 54.04 1426.78 54.8 1426.78 55.73Z" fill="url(#paint51_linear_23_29)" fill-opacity="0.53"/>
<path d="M1441.98 55.73C1441.98 56.66 1441.22 57.42 1440.29 57.42C1439.36 57.42 1438.6 56.66 1438.6 55.73C1438.6 54.8 1439.36 54.04 1440.29 54.04C1441.22 54.04 1441.98 54.8 1441.98 55.73Z" fill="url(#paint52_linear_23_29)" fill-opacity="0.53"/>
<path d="M1457.18 55.73C1457.18 56.66 1456.42 57.42 1455.49 57.42C1454.56 57.42 1453.8 56.66 1453.8 55.73C1453.8 54.8 1454.56 54.04 1455.49 54.04C1456.42 54.04 1457.18 54.8 1457.18 55.73Z" fill="url(#paint53_linear_23_29)" fill-opacity="0.53"/>
<path d="M1472.38 55.73C1472.38 56.66 1471.62 57.42 1470.69 57.42C1469.76 57.42 1469 56.66 1469 55.73C1469 54.8 1469.76 54.04 1470.69 54.04C1471.62 54.04 1472.38 54.8 1472.38 55.73Z" fill="url(#paint54_linear_23_29)" fill-opacity="0.53"/>
<path d="M1320.38 69.2398C1320.38 70.1698 1319.62 70.9298 1318.69 70.9298C1317.76 70.9298 1317 70.1698 1317 69.2398C1317 68.3098 1317.76 67.5498 1318.69 67.5498C1319.62 67.5498 1320.38 68.3098 1320.38 69.2398Z" fill="url(#paint55_linear_23_29)" fill-opacity="0.53"/>
<path d="M1335.58 69.2398C1335.58 70.1698 1334.82 70.9298 1333.89 70.9298C1332.96 70.9298 1332.2 70.1698 1332.2 69.2398C1332.2 68.3098 1332.96 67.5498 1333.89 67.5498C1334.82 67.5498 1335.58 68.3098 1335.58 69.2398Z" fill="url(#paint56_linear_23_29)" fill-opacity="0.53"/>
<path d="M1350.78 69.2398C1350.78 70.1698 1350.02 70.9298 1349.09 70.9298C1348.16 70.9298 1347.4 70.1698 1347.4 69.2398C1347.4 68.3098 1348.16 67.5498 1349.09 67.5498C1350.02 67.5498 1350.78 68.3098 1350.78 69.2398Z" fill="url(#paint57_linear_23_29)" fill-opacity="0.53"/>
<path d="M1365.98 69.2398C1365.98 70.1698 1365.22 70.9298 1364.29 70.9298C1363.36 70.9298 1362.6 70.1698 1362.6 69.2398C1362.6 68.3098 1363.36 67.5498 1364.29 67.5498C1365.22 67.5498 1365.98 68.3098 1365.98 69.2398Z" fill="url(#paint58_linear_23_29)" fill-opacity="0.53"/>
<path d="M1381.18 69.2398C1381.18 70.1698 1380.42 70.9298 1379.49 70.9298C1378.56 70.9298 1377.8 70.1698 1377.8 69.2398C1377.8 68.3098 1378.56 67.5498 1379.49 67.5498C1380.42 67.5498 1381.18 68.3098 1381.18 69.2398Z" fill="url(#paint59_linear_23_29)" fill-opacity="0.53"/>
<path d="M1396.38 69.2398C1396.38 70.1698 1395.62 70.9298 1394.69 70.9298C1393.76 70.9298 1393 70.1698 1393 69.2398C1393 68.3098 1393.76 67.5498 1394.69 67.5498C1395.62 67.5498 1396.38 68.3098 1396.38 69.2398Z" fill="url(#paint60_linear_23_29)" fill-opacity="0.53"/>
<path d="M1411.58 69.2398C1411.58 70.1698 1410.82 70.9298 1409.89 70.9298C1408.96 70.9298 1408.2 70.1698 1408.2 69.2398C1408.2 68.3098 1408.96 67.5498 1409.89 67.5498C1410.82 67.5498 1411.58 68.3098 1411.58 69.2398Z" fill="url(#paint61_linear_23_29)" fill-opacity="0.53"/>
<path d="M1426.78 69.2398C1426.78 70.1698 1426.02 70.9298 1425.09 70.9298C1424.16 70.9298 1423.4 70.1698 1423.4 69.2398C1423.4 68.3098 1424.16 67.5498 1425.09 67.5498C1426.02 67.5498 1426.78 68.3098 1426.78 69.2398Z" fill="url(#paint62_linear_23_29)" fill-opacity="0.53"/>
<path d="M1441.98 69.2398C1441.98 70.1698 1441.22 70.9298 1440.29 70.9298C1439.36 70.9298 1438.6 70.1698 1438.6 69.2398C1438.6 68.3098 1439.36 67.5498 1440.29 67.5498C1441.22 67.5498 1441.98 68.3098 1441.98 69.2398Z" fill="url(#paint63_linear_23_29)" fill-opacity="0.53"/>
<path d="M1457.18 69.2398C1457.18 70.1698 1456.42 70.9298 1455.49 70.9298C1454.56 70.9298 1453.8 70.1698 1453.8 69.2398C1453.8 68.3098 1454.56 67.5498 1455.49 67.5498C1456.42 67.5498 1457.18 68.3098 1457.18 69.2398Z" fill="url(#paint64_linear_23_29)" fill-opacity="0.53"/>
<path d="M1472.38 69.2398C1472.38 70.1698 1471.62 70.9298 1470.69 70.9298C1469.76 70.9298 1469 70.1698 1469 69.2398C1469 68.3098 1469.76 67.5498 1470.69 67.5498C1471.62 67.5498 1472.38 68.3098 1472.38 69.2398Z" fill="url(#paint65_linear_23_29)" fill-opacity="0.53"/>
<path d="M1318.69 84.4396C1319.62 84.4396 1320.38 83.6829 1320.38 82.7496C1320.38 81.8162 1319.62 81.0596 1318.69 81.0596C1317.76 81.0596 1317 81.8162 1317 82.7496C1317 83.6829 1317.76 84.4396 1318.69 84.4396Z" fill="url(#paint66_linear_23_29)" fill-opacity="0.53"/>
<path d="M1333.89 84.4396C1334.82 84.4396 1335.58 83.6829 1335.58 82.7496C1335.58 81.8162 1334.82 81.0596 1333.89 81.0596C1332.96 81.0596 1332.2 81.8162 1332.2 82.7496C1332.2 83.6829 1332.96 84.4396 1333.89 84.4396Z" fill="url(#paint67_linear_23_29)" fill-opacity="0.53"/>
<path d="M1349.09 84.4396C1350.02 84.4396 1350.78 83.6829 1350.78 82.7496C1350.78 81.8162 1350.02 81.0596 1349.09 81.0596C1348.16 81.0596 1347.4 81.8162 1347.4 82.7496C1347.4 83.6829 1348.16 84.4396 1349.09 84.4396Z" fill="url(#paint68_linear_23_29)" fill-opacity="0.53"/>
<path d="M1365.98 82.7496C1365.98 83.6796 1365.22 84.4396 1364.29 84.4396C1363.36 84.4396 1362.6 83.6796 1362.6 82.7496C1362.6 81.8196 1363.36 81.0596 1364.29 81.0596C1365.22 81.0696 1365.98 81.8196 1365.98 82.7496Z" fill="url(#paint69_linear_23_29)" fill-opacity="0.53"/>
<path d="M1381.18 82.7496C1381.18 83.6796 1380.42 84.4396 1379.49 84.4396C1378.56 84.4396 1377.8 83.6796 1377.8 82.7496C1377.8 81.8196 1378.56 81.0596 1379.49 81.0596C1380.42 81.0696 1381.18 81.8196 1381.18 82.7496Z" fill="url(#paint70_linear_23_29)" fill-opacity="0.53"/>
<path d="M1394.69 84.4396C1395.62 84.4396 1396.38 83.6829 1396.38 82.7496C1396.38 81.8162 1395.62 81.0596 1394.69 81.0596C1393.76 81.0596 1393 81.8162 1393 82.7496C1393 83.6829 1393.76 84.4396 1394.69 84.4396Z" fill="url(#paint71_linear_23_29)" fill-opacity="0.53"/>
<path d="M1409.89 84.4396C1410.82 84.4396 1411.58 83.6829 1411.58 82.7496C1411.58 81.8162 1410.82 81.0596 1409.89 81.0596C1408.96 81.0596 1408.2 81.8162 1408.2 82.7496C1408.2 83.6829 1408.96 84.4396 1409.89 84.4396Z" fill="url(#paint72_linear_23_29)" fill-opacity="0.53"/>
<path d="M1425.09 84.4396C1426.02 84.4396 1426.78 83.6829 1426.78 82.7496C1426.78 81.8162 1426.02 81.0596 1425.09 81.0596C1424.16 81.0596 1423.4 81.8162 1423.4 82.7496C1423.4 83.6829 1424.16 84.4396 1425.09 84.4396Z" fill="url(#paint73_linear_23_29)" fill-opacity="0.53"/>
<path d="M1440.29 84.4396C1441.22 84.4396 1441.98 83.6829 1441.98 82.7496C1441.98 81.8162 1441.22 81.0596 1440.29 81.0596C1439.36 81.0596 1438.6 81.8162 1438.6 82.7496C1438.6 83.6829 1439.36 84.4396 1440.29 84.4396Z" fill="url(#paint74_linear_23_29)" fill-opacity="0.53"/>
<path d="M1455.49 84.4396C1456.42 84.4396 1457.18 83.6829 1457.18 82.7496C1457.18 81.8162 1456.42 81.0596 1455.49 81.0596C1454.56 81.0596 1453.8 81.8162 1453.8 82.7496C1453.8 83.6829 1454.56 84.4396 1455.49 84.4396Z" fill="url(#paint75_linear_23_29)" fill-opacity="0.53"/>
<path d="M1470.69 84.4396C1471.62 84.4396 1472.38 83.6829 1472.38 82.7496C1472.38 81.8162 1471.62 81.0596 1470.69 81.0596C1469.76 81.0596 1469 81.8162 1469 82.7496C1469 83.6829 1469.76 84.4396 1470.69 84.4396Z" fill="url(#paint76_linear_23_29)" fill-opacity="0.53"/>
<path d="M1320.38 96.2701C1320.38 97.2001 1319.62 97.9601 1318.69 97.9601C1317.76 97.9601 1317 97.2001 1317 96.2701C1317 95.3401 1317.76 94.5801 1318.69 94.5801C1319.62 94.5801 1320.38 95.3301 1320.38 96.2701Z" fill="url(#paint77_linear_23_29)" fill-opacity="0.53"/>
<path d="M1335.58 96.2701C1335.58 97.2001 1334.82 97.9601 1333.89 97.9601C1332.96 97.9601 1332.2 97.2001 1332.2 96.2701C1332.2 95.3401 1332.96 94.5801 1333.89 94.5801C1334.82 94.5801 1335.58 95.3301 1335.58 96.2701Z" fill="url(#paint78_linear_23_29)" fill-opacity="0.53"/>
<path d="M1350.78 96.2701C1350.78 97.2001 1350.02 97.9601 1349.09 97.9601C1348.16 97.9601 1347.4 97.2001 1347.4 96.2701C1347.4 95.3401 1348.16 94.5801 1349.09 94.5801C1350.02 94.5801 1350.78 95.3301 1350.78 96.2701Z" fill="url(#paint79_linear_23_29)" fill-opacity="0.53"/>
<path d="M1365.98 96.2701C1365.98 97.2001 1365.22 97.9601 1364.29 97.9601C1363.36 97.9601 1362.6 97.2001 1362.6 96.2701C1362.6 95.3401 1363.36 94.5801 1364.29 94.5801C1365.22 94.5801 1365.98 95.3301 1365.98 96.2701Z" fill="url(#paint80_linear_23_29)" fill-opacity="0.53"/>
<path d="M1381.18 96.2701C1381.18 97.2001 1380.42 97.9601 1379.49 97.9601C1378.56 97.9601 1377.8 97.2001 1377.8 96.2701C1377.8 95.3401 1378.56 94.5801 1379.49 94.5801C1380.42 94.5801 1381.18 95.3301 1381.18 96.2701Z" fill="url(#paint81_linear_23_29)" fill-opacity="0.53"/>
<path d="M1396.38 96.2701C1396.38 97.2001 1395.62 97.9601 1394.69 97.9601C1393.76 97.9601 1393 97.2001 1393 96.2701C1393 95.3401 1393.76 94.5801 1394.69 94.5801C1395.62 94.5801 1396.38 95.3301 1396.38 96.2701Z" fill="url(#paint82_linear_23_29)" fill-opacity="0.53"/>
<path d="M1411.58 96.2701C1411.58 97.2001 1410.82 97.9601 1409.89 97.9601C1408.96 97.9601 1408.2 97.2001 1408.2 96.2701C1408.2 95.3401 1408.96 94.5801 1409.89 94.5801C1410.82 94.5801 1411.58 95.3301 1411.58 96.2701Z" fill="url(#paint83_linear_23_29)" fill-opacity="0.53"/>
<path d="M1426.78 96.2701C1426.78 97.2001 1426.02 97.9601 1425.09 97.9601C1424.16 97.9601 1423.4 97.2001 1423.4 96.2701C1423.4 95.3401 1424.16 94.5801 1425.09 94.5801C1426.02 94.5801 1426.78 95.3301 1426.78 96.2701Z" fill="url(#paint84_linear_23_29)" fill-opacity="0.53"/>
<path d="M1441.98 96.2701C1441.98 97.2001 1441.22 97.9601 1440.29 97.9601C1439.36 97.9601 1438.6 97.2001 1438.6 96.2701C1438.6 95.3401 1439.36 94.5801 1440.29 94.5801C1441.22 94.5801 1441.98 95.3301 1441.98 96.2701Z" fill="url(#paint85_linear_23_29)" fill-opacity="0.53"/>
<path d="M1457.18 96.2701C1457.18 97.2001 1456.42 97.9601 1455.49 97.9601C1454.56 97.9601 1453.8 97.2001 1453.8 96.2701C1453.8 95.3401 1454.56 94.5801 1455.49 94.5801C1456.42 94.5801 1457.18 95.3301 1457.18 96.2701Z" fill="url(#paint86_linear_23_29)" fill-opacity="0.53"/>
<path d="M1472.38 96.2701C1472.38 97.2001 1471.62 97.9601 1470.69 97.9601C1469.76 97.9601 1469 97.2001 1469 96.2701C1469 95.3401 1469.76 94.5801 1470.69 94.5801C1471.62 94.5801 1472.38 95.3301 1472.38 96.2701Z" fill="url(#paint87_linear_23_29)" fill-opacity="0.53"/>
<path d="M1320.38 109.78C1320.38 110.71 1319.62 111.47 1318.69 111.47C1317.76 111.47 1317 110.71 1317 109.78C1317 108.85 1317.76 108.09 1318.69 108.09C1319.62 108.09 1320.38 108.84 1320.38 109.78Z" fill="url(#paint88_linear_23_29)" fill-opacity="0.53"/>
<path d="M1335.58 109.78C1335.58 110.71 1334.82 111.47 1333.89 111.47C1332.96 111.47 1332.2 110.71 1332.2 109.78C1332.2 108.85 1332.96 108.09 1333.89 108.09C1334.82 108.09 1335.58 108.84 1335.58 109.78Z" fill="url(#paint89_linear_23_29)" fill-opacity="0.53"/>
<path d="M1350.78 109.78C1350.78 110.71 1350.02 111.47 1349.09 111.47C1348.16 111.47 1347.4 110.71 1347.4 109.78C1347.4 108.85 1348.16 108.09 1349.09 108.09C1350.02 108.09 1350.78 108.84 1350.78 109.78Z" fill="url(#paint90_linear_23_29)" fill-opacity="0.53"/>
<path d="M1365.98 109.78C1365.98 110.71 1365.22 111.47 1364.29 111.47C1363.36 111.47 1362.6 110.71 1362.6 109.78C1362.6 108.85 1363.36 108.09 1364.29 108.09C1365.22 108.09 1365.98 108.84 1365.98 109.78Z" fill="url(#paint91_linear_23_29)" fill-opacity="0.53"/>
<path d="M1381.18 109.78C1381.18 110.71 1380.42 111.47 1379.49 111.47C1378.56 111.47 1377.8 110.71 1377.8 109.78C1377.8 108.85 1378.56 108.09 1379.49 108.09C1380.42 108.09 1381.18 108.84 1381.18 109.78Z" fill="url(#paint92_linear_23_29)" fill-opacity="0.53"/>
<path d="M1396.38 109.78C1396.38 110.71 1395.62 111.47 1394.69 111.47C1393.76 111.47 1393 110.71 1393 109.78C1393 108.85 1393.76 108.09 1394.69 108.09C1395.62 108.09 1396.38 108.84 1396.38 109.78Z" fill="url(#paint93_linear_23_29)" fill-opacity="0.53"/>
<path d="M1411.58 109.78C1411.58 110.71 1410.82 111.47 1409.89 111.47C1408.96 111.47 1408.2 110.71 1408.2 109.78C1408.2 108.85 1408.96 108.09 1409.89 108.09C1410.82 108.09 1411.58 108.84 1411.58 109.78Z" fill="url(#paint94_linear_23_29)" fill-opacity="0.53"/>
<path d="M1426.78 109.78C1426.78 110.71 1426.02 111.47 1425.09 111.47C1424.16 111.47 1423.4 110.71 1423.4 109.78C1423.4 108.85 1424.16 108.09 1425.09 108.09C1426.02 108.09 1426.78 108.84 1426.78 109.78Z" fill="url(#paint95_linear_23_29)" fill-opacity="0.53"/>
<path d="M1441.98 109.78C1441.98 110.71 1441.22 111.47 1440.29 111.47C1439.36 111.47 1438.6 110.71 1438.6 109.78C1438.6 108.85 1439.36 108.09 1440.29 108.09C1441.22 108.09 1441.98 108.84 1441.98 109.78Z" fill="url(#paint96_linear_23_29)" fill-opacity="0.53"/>
<path d="M1457.18 109.78C1457.18 110.71 1456.42 111.47 1455.49 111.47C1454.56 111.47 1453.8 110.71 1453.8 109.78C1453.8 108.85 1454.56 108.09 1455.49 108.09C1456.42 108.09 1457.18 108.84 1457.18 109.78Z" fill="url(#paint97_linear_23_29)" fill-opacity="0.53"/>
<path d="M1472.38 109.78C1472.38 110.71 1471.62 111.47 1470.69 111.47C1469.76 111.47 1469 110.71 1469 109.78C1469 108.85 1469.76 108.09 1470.69 108.09C1471.62 108.09 1472.38 108.84 1472.38 109.78Z" fill="url(#paint98_linear_23_29)" fill-opacity="0.53"/>
<path d="M1320.38 123.29C1320.38 124.22 1319.62 124.98 1318.69 124.98C1317.76 124.98 1317 124.22 1317 123.29C1317 122.36 1317.76 121.6 1318.69 121.6C1319.62 121.6 1320.38 122.36 1320.38 123.29Z" fill="url(#paint99_linear_23_29)" fill-opacity="0.53"/>
<path d="M1335.58 123.29C1335.58 124.22 1334.82 124.98 1333.89 124.98C1332.96 124.98 1332.2 124.22 1332.2 123.29C1332.2 122.36 1332.96 121.6 1333.89 121.6C1334.82 121.6 1335.58 122.36 1335.58 123.29Z" fill="url(#paint100_linear_23_29)" fill-opacity="0.53"/>
<path d="M1350.78 123.29C1350.78 124.22 1350.02 124.98 1349.09 124.98C1348.16 124.98 1347.4 124.22 1347.4 123.29C1347.4 122.36 1348.16 121.6 1349.09 121.6C1350.02 121.6 1350.78 122.36 1350.78 123.29Z" fill="url(#paint101_linear_23_29)" fill-opacity="0.53"/>
<path d="M1365.98 123.29C1365.98 124.22 1365.22 124.98 1364.29 124.98C1363.36 124.98 1362.6 124.22 1362.6 123.29C1362.6 122.36 1363.36 121.6 1364.29 121.6C1365.22 121.6 1365.98 122.36 1365.98 123.29Z" fill="url(#paint102_linear_23_29)" fill-opacity="0.53"/>
<path d="M1381.18 123.29C1381.18 124.22 1380.42 124.98 1379.49 124.98C1378.56 124.98 1377.8 124.22 1377.8 123.29C1377.8 122.36 1378.56 121.6 1379.49 121.6C1380.42 121.6 1381.18 122.36 1381.18 123.29Z" fill="url(#paint103_linear_23_29)" fill-opacity="0.53"/>
<path d="M1396.38 123.29C1396.38 124.22 1395.62 124.98 1394.69 124.98C1393.76 124.98 1393 124.22 1393 123.29C1393 122.36 1393.76 121.6 1394.69 121.6C1395.62 121.6 1396.38 122.36 1396.38 123.29Z" fill="url(#paint104_linear_23_29)" fill-opacity="0.53"/>
<path d="M1411.58 123.29C1411.58 124.22 1410.82 124.98 1409.89 124.98C1408.96 124.98 1408.2 124.22 1408.2 123.29C1408.2 122.36 1408.96 121.6 1409.89 121.6C1410.82 121.6 1411.58 122.36 1411.58 123.29Z" fill="url(#paint105_linear_23_29)" fill-opacity="0.53"/>
<path d="M1426.78 123.29C1426.78 124.22 1426.02 124.98 1425.09 124.98C1424.16 124.98 1423.4 124.22 1423.4 123.29C1423.4 122.36 1424.16 121.6 1425.09 121.6C1426.02 121.6 1426.78 122.36 1426.78 123.29Z" fill="url(#paint106_linear_23_29)" fill-opacity="0.53"/>
<path d="M1441.98 123.29C1441.98 124.22 1441.22 124.98 1440.29 124.98C1439.36 124.98 1438.6 124.22 1438.6 123.29C1438.6 122.36 1439.36 121.6 1440.29 121.6C1441.22 121.6 1441.98 122.36 1441.98 123.29Z" fill="url(#paint107_linear_23_29)" fill-opacity="0.53"/>
<path d="M1457.18 123.29C1457.18 124.22 1456.42 124.98 1455.49 124.98C1454.56 124.98 1453.8 124.22 1453.8 123.29C1453.8 122.36 1454.56 121.6 1455.49 121.6C1456.42 121.6 1457.18 122.36 1457.18 123.29Z" fill="url(#paint108_linear_23_29)" fill-opacity="0.53"/>
<path d="M1472.38 123.29C1472.38 124.22 1471.62 124.98 1470.69 124.98C1469.76 124.98 1469 124.22 1469 123.29C1469 122.36 1469.76 121.6 1470.69 121.6C1471.62 121.6 1472.38 122.36 1472.38 123.29Z" fill="url(#paint109_linear_23_29)" fill-opacity="0.53"/>
<path d="M1318.69 138.49C1319.62 138.49 1320.38 137.734 1320.38 136.8C1320.38 135.867 1319.62 135.11 1318.69 135.11C1317.76 135.11 1317 135.867 1317 136.8C1317 137.734 1317.76 138.49 1318.69 138.49Z" fill="url(#paint110_linear_23_29)" fill-opacity="0.53"/>
<path d="M1333.89 138.49C1334.82 138.49 1335.58 137.734 1335.58 136.8C1335.58 135.867 1334.82 135.11 1333.89 135.11C1332.96 135.11 1332.2 135.867 1332.2 136.8C1332.2 137.734 1332.96 138.49 1333.89 138.49Z" fill="url(#paint111_linear_23_29)" fill-opacity="0.53"/>
<path d="M1349.09 138.49C1350.02 138.49 1350.78 137.734 1350.78 136.8C1350.78 135.867 1350.02 135.11 1349.09 135.11C1348.16 135.11 1347.4 135.867 1347.4 136.8C1347.4 137.734 1348.16 138.49 1349.09 138.49Z" fill="url(#paint112_linear_23_29)" fill-opacity="0.53"/>
<path d="M1365.98 136.8C1365.98 137.73 1365.22 138.49 1364.29 138.49C1363.36 138.49 1362.6 137.73 1362.6 136.8C1362.6 135.87 1363.36 135.11 1364.29 135.11C1365.22 135.11 1365.98 135.87 1365.98 136.8Z" fill="url(#paint113_linear_23_29)" fill-opacity="0.53"/>
<path d="M1381.18 136.8C1381.18 137.73 1380.42 138.49 1379.49 138.49C1378.56 138.49 1377.8 137.73 1377.8 136.8C1377.8 135.87 1378.56 135.11 1379.49 135.11C1380.42 135.11 1381.18 135.87 1381.18 136.8Z" fill="url(#paint114_linear_23_29)" fill-opacity="0.53"/>
<path d="M1394.69 138.49C1395.62 138.49 1396.38 137.734 1396.38 136.8C1396.38 135.867 1395.62 135.11 1394.69 135.11C1393.76 135.11 1393 135.867 1393 136.8C1393 137.734 1393.76 138.49 1394.69 138.49Z" fill="url(#paint115_linear_23_29)" fill-opacity="0.53"/>
<path d="M1409.89 138.49C1410.82 138.49 1411.58 137.734 1411.58 136.8C1411.58 135.867 1410.82 135.11 1409.89 135.11C1408.96 135.11 1408.2 135.867 1408.2 136.8C1408.2 137.734 1408.96 138.49 1409.89 138.49Z" fill="url(#paint116_linear_23_29)" fill-opacity="0.53"/>
<path d="M1425.09 138.49C1426.02 138.49 1426.78 137.734 1426.78 136.8C1426.78 135.867 1426.02 135.11 1425.09 135.11C1424.16 135.11 1423.4 135.867 1423.4 136.8C1423.4 137.734 1424.16 138.49 1425.09 138.49Z" fill="url(#paint117_linear_23_29)" fill-opacity="0.53"/>
<path d="M1440.29 138.49C1441.22 138.49 1441.98 137.734 1441.98 136.8C1441.98 135.867 1441.22 135.11 1440.29 135.11C1439.36 135.11 1438.6 135.867 1438.6 136.8C1438.6 137.734 1439.36 138.49 1440.29 138.49Z" fill="url(#paint118_linear_23_29)" fill-opacity="0.53"/>
<path d="M1455.49 138.49C1456.42 138.49 1457.18 137.734 1457.18 136.8C1457.18 135.867 1456.42 135.11 1455.49 135.11C1454.56 135.11 1453.8 135.867 1453.8 136.8C1453.8 137.734 1454.56 138.49 1455.49 138.49Z" fill="url(#paint119_linear_23_29)" fill-opacity="0.53"/>
<path d="M1470.69 138.49C1471.62 138.49 1472.38 137.734 1472.38 136.8C1472.38 135.867 1471.62 135.11 1470.69 135.11C1469.76 135.11 1469 135.867 1469 136.8C1469 137.734 1469.76 138.49 1470.69 138.49Z" fill="url(#paint120_linear_23_29)" fill-opacity="0.53"/>
<path d="M1320.38 150.31C1320.38 151.24 1319.62 152 1318.69 152C1317.76 152 1317 151.24 1317 150.31C1317 149.38 1317.76 148.62 1318.69 148.62C1319.62 148.62 1320.38 149.38 1320.38 150.31Z" fill="url(#paint121_linear_23_29)" fill-opacity="0.53"/>
<path d="M1335.58 150.31C1335.58 151.24 1334.82 152 1333.89 152C1332.96 152 1332.2 151.24 1332.2 150.31C1332.2 149.38 1332.96 148.62 1333.89 148.62C1334.82 148.62 1335.58 149.38 1335.58 150.31Z" fill="url(#paint122_linear_23_29)" fill-opacity="0.53"/>
<path d="M1350.78 150.31C1350.78 151.24 1350.02 152 1349.09 152C1348.16 152 1347.4 151.24 1347.4 150.31C1347.4 149.38 1348.16 148.62 1349.09 148.62C1350.02 148.62 1350.78 149.38 1350.78 150.31Z" fill="url(#paint123_linear_23_29)" fill-opacity="0.53"/>
<path d="M1365.98 150.31C1365.98 151.24 1365.22 152 1364.29 152C1363.36 152 1362.6 151.24 1362.6 150.31C1362.6 149.38 1363.36 148.62 1364.29 148.62C1365.22 148.62 1365.98 149.38 1365.98 150.31Z" fill="url(#paint124_linear_23_29)" fill-opacity="0.53"/>
<path d="M1381.18 150.31C1381.18 151.24 1380.42 152 1379.49 152C1378.56 152 1377.8 151.24 1377.8 150.31C1377.8 149.38 1378.56 148.62 1379.49 148.62C1380.42 148.62 1381.18 149.38 1381.18 150.31Z" fill="url(#paint125_linear_23_29)" fill-opacity="0.53"/>
<path d="M1396.38 150.31C1396.38 151.24 1395.62 152 1394.69 152C1393.76 152 1393 151.24 1393 150.31C1393 149.38 1393.76 148.62 1394.69 148.62C1395.62 148.62 1396.38 149.38 1396.38 150.31Z" fill="url(#paint126_linear_23_29)" fill-opacity="0.53"/>
<path d="M1411.58 150.31C1411.58 151.24 1410.82 152 1409.89 152C1408.96 152 1408.2 151.24 1408.2 150.31C1408.2 149.38 1408.96 148.62 1409.89 148.62C1410.82 148.62 1411.58 149.38 1411.58 150.31Z" fill="url(#paint127_linear_23_29)" fill-opacity="0.53"/>
<path d="M1426.78 150.31C1426.78 151.24 1426.02 152 1425.09 152C1424.16 152 1423.4 151.24 1423.4 150.31C1423.4 149.38 1424.16 148.62 1425.09 148.62C1426.02 148.62 1426.78 149.38 1426.78 150.31Z" fill="url(#paint128_linear_23_29)" fill-opacity="0.53"/>
<path d="M1441.98 150.31C1441.98 151.24 1441.22 152 1440.29 152C1439.36 152 1438.6 151.24 1438.6 150.31C1438.6 149.38 1439.36 148.62 1440.29 148.62C1441.22 148.62 1441.98 149.38 1441.98 150.31Z" fill="url(#paint129_linear_23_29)" fill-opacity="0.53"/>
<path d="M1457.18 150.31C1457.18 151.24 1456.42 152 1455.49 152C1454.56 152 1453.8 151.24 1453.8 150.31C1453.8 149.38 1454.56 148.62 1455.49 148.62C1456.42 148.62 1457.18 149.38 1457.18 150.31Z" fill="url(#paint130_linear_23_29)" fill-opacity="0.53"/>
<path d="M1472.38 150.31C1472.38 151.24 1471.62 152 1470.69 152C1469.76 152 1469 151.24 1469 150.31C1469 149.38 1469.76 148.62 1470.69 148.62C1471.62 148.62 1472.38 149.38 1472.38 150.31Z" fill="url(#paint131_linear_23_29)" fill-opacity="0.53"/>
<path d="M402.941 662.246L400.718 660.546C430.288 621.721 445.922 575.341 445.922 526.398C445.922 450.579 407.777 380.825 343.88 339.804L345.396 337.451C410.104 378.969 448.72 449.612 448.72 526.398C448.72 575.942 432.876 622.924 402.941 662.246Z" fill="#A4C1E4" fill-opacity="0.45"/>
<path d="M224.373 750.746C100.657 750.746 0 650.089 0 526.373C0 402.657 100.657 302 224.373 302V304.797C102.199 304.797 2.82362 404.199 2.82362 526.347C2.82362 648.52 102.225 747.896 224.373 747.896C261.289 747.896 297.839 738.641 330.049 721.124L331.383 723.582C298.754 741.386 261.734 750.746 224.373 750.746Z" fill="#A4C1E4" fill-opacity="0.45"/>
<path d="M118.2 699.085C57.7534 661.855 21.6738 597.278 21.6738 526.374H27.2949C27.2949 595.317 62.3809 658.091 121.154 694.301L118.2 699.085Z" fill="#A4C1E4" fill-opacity="0.45"/>
<path d="M224.374 729.097C202.151 729.097 180.32 725.516 159.457 718.483L161.261 713.175C181.549 720.025 202.779 723.502 224.4 723.502C325.92 723.502 410.236 647.448 420.459 546.582L426.053 547.157C415.491 650.847 328.796 729.097 224.374 729.097Z" fill="#A4C1E4" fill-opacity="0.45"/>
<path d="M418.942 494.893C411.596 449.166 388.118 407.257 352.797 376.903C317.109 346.209 271.487 329.32 224.374 329.32C186.334 329.32 149.418 340.17 117.6 360.719C80.5268 384.668 52.2383 420.747 37.9372 462.317L32.6299 460.487C47.3231 417.741 76.4221 380.641 114.541 356.013C147.274 334.888 185.236 323.725 224.348 323.725C272.82 323.725 319.724 341.111 356.431 372.667C392.746 403.884 416.903 446.996 424.459 494.031L418.942 494.893Z" fill="#A4C1E4" fill-opacity="0.45"/>
<path d="M224.374 672.782C143.639 672.782 77.9639 607.106 77.9639 526.372C77.9639 493.691 88.5001 462.788 108.396 437.01L112.841 440.435C93.7029 465.246 83.5849 494.946 83.5849 526.372C83.5849 603.995 146.75 667.161 224.374 667.161C238.152 667.161 251.773 665.174 264.819 661.252L266.44 666.638C252.845 670.742 238.675 672.782 224.374 672.782Z" fill="#A4C1E4" fill-opacity="0.45"/>
<path d="M323.253 634.351L319.462 630.22C348.509 603.605 365.163 565.774 365.163 526.4C365.163 498.687 357.11 471.863 341.894 448.829L346.574 445.744C362.417 469.693 370.784 497.589 370.784 526.426C370.758 567.343 353.45 606.69 323.253 634.351Z" fill="#A4C1E4" fill-opacity="0.45"/>
<path d="M311.957 416.147C286.832 396.147 256.53 385.584 224.372 385.584C196.162 385.584 168.946 393.898 145.651 409.637L142.514 404.983C166.724 388.617 195.038 379.989 224.372 379.989C257.838 379.989 289.342 390.97 315.46 411.781L311.957 416.147Z" fill="#A4C1E4" fill-opacity="0.45"/>
<path d="M224.373 647.632C204.66 647.632 185.077 642.795 167.77 633.644L169.077 631.161C185.992 640.102 205.104 644.834 224.346 644.834C277.498 644.834 324.454 609.094 338.546 557.903L341.239 558.662C326.859 611.055 278.78 647.632 224.373 647.632Z" fill="#A4C1E4" fill-opacity="0.45"/>
<path d="M138.646 612.154C115.743 589.251 103.115 558.792 103.115 526.399C103.115 459.548 157.496 405.141 224.374 405.141C291.226 405.141 345.633 459.548 345.633 526.399H342.835C342.835 461.09 289.709 407.964 224.4 407.964C159.091 407.964 105.965 461.09 105.965 526.399C105.965 558.034 118.279 587.787 140.685 610.167L138.646 612.154Z" fill="#A4C1E4" fill-opacity="0.45"/>
<path d="M224.372 601.8C182.775 601.8 148.944 567.969 148.944 526.372C148.944 484.776 182.775 450.945 224.372 450.945V456.566C185.887 456.566 154.565 487.888 154.565 526.372C154.565 564.857 185.887 596.179 224.372 596.179C262.856 596.179 294.178 564.857 294.178 526.372H299.799C299.773 567.969 265.941 601.8 224.372 601.8Z" fill="#A4C1E4" fill-opacity="0.45"/>
<path d="M224.374 563.865C203.694 563.865 186.883 547.055 186.883 526.374H189.68C189.68 545.486 205.236 561.042 224.348 561.042C243.46 561.042 259.016 545.486 259.016 526.374C259.016 507.262 243.46 491.706 224.348 491.706C213.733 491.706 203.851 496.465 197.21 504.779L195.014 503.027C202.177 494.033 212.871 488.883 224.348 488.883C245.028 488.883 261.839 505.694 261.839 526.374C261.839 547.055 245.028 563.865 224.374 563.865Z" fill="#A4C1E4" fill-opacity="0.45"/>
<path d="M1472 855H1591.89C1591.89 888.11 1565.05 914.95 1531.94 914.95C1498.84 914.94 1472 888.1 1472 855Z" fill="#B4E3ED"/>
<g opacity="0.71">
<path opacity="0.71" d="M1566.13 826.277C1579.83 823.7 1588.85 810.506 1586.28 796.806C1583.7 783.106 1570.51 774.089 1556.81 776.665C1543.11 779.241 1534.09 792.435 1536.66 806.135C1539.24 819.835 1552.43 828.853 1566.13 826.277Z" fill="#D7EAEA"/>
</g>
<defs>
<linearGradient id="paint0_linear_23_29" x1="1318.69" y1="0" x2="1318.69" y2="3.37999" gradientUnits="userSpaceOnUse">
<stop/>
<stop offset="1" stop-opacity="0"/>
</linearGradient>
<linearGradient id="paint1_linear_23_29" x1="1333.89" y1="0" x2="1333.89" y2="3.37999" gradientUnits="userSpaceOnUse">
<stop/>
<stop offset="1" stop-opacity="0"/>
</linearGradient>
<linearGradient id="paint2_linear_23_29" x1="1349.09" y1="0" x2="1349.09" y2="3.37999" gradientUnits="userSpaceOnUse">
<stop/>
<stop offset="1" stop-opacity="0"/>
</linearGradient>
<linearGradient id="paint3_linear_23_29" x1="1364.29" y1="0" x2="1364.29" y2="3.37999" gradientUnits="userSpaceOnUse">
<stop/>
<stop offset="1" stop-opacity="0"/>
</linearGradient>
<linearGradient id="paint4_linear_23_29" x1="1379.49" y1="0" x2="1379.49" y2="3.37999" gradientUnits="userSpaceOnUse">
<stop/>
<stop offset="1" stop-opacity="0"/>
</linearGradient>
<linearGradient id="paint5_linear_23_29" x1="1394.69" y1="0" x2="1394.69" y2="3.37999" gradientUnits="userSpaceOnUse">
<stop/>
<stop offset="1" stop-opacity="0"/>
</linearGradient>
<linearGradient id="paint6_linear_23_29" x1="1409.89" y1="0" x2="1409.89" y2="3.37999" gradientUnits="userSpaceOnUse">
<stop/>
<stop offset="1" stop-opacity="0"/>
</linearGradient>
<linearGradient id="paint7_linear_23_29" x1="1425.09" y1="0" x2="1425.09" y2="3.37999" gradientUnits="userSpaceOnUse">
<stop/>
<stop offset="1" stop-opacity="0"/>
</linearGradient>
<linearGradient id="paint8_linear_23_29" x1="1440.29" y1="0" x2="1440.29" y2="3.37999" gradientUnits="userSpaceOnUse">
<stop/>
<stop offset="1" stop-opacity="0"/>
</linearGradient>
<linearGradient id="paint9_linear_23_29" x1="1455.49" y1="0" x2="1455.49" y2="3.37999" gradientUnits="userSpaceOnUse">
<stop/>
<stop offset="1" stop-opacity="0"/>
</linearGradient>
<linearGradient id="paint10_linear_23_29" x1="1470.69" y1="0" x2="1470.69" y2="3.37999" gradientUnits="userSpaceOnUse">
<stop/>
<stop offset="1" stop-opacity="0"/>
</linearGradient>
<linearGradient id="paint11_linear_23_29" x1="1318.69" y1="13.5098" x2="1318.69" y2="16.8898" gradientUnits="userSpaceOnUse">
<stop/>
<stop offset="1" stop-opacity="0"/>
</linearGradient>
<linearGradient id="paint12_linear_23_29" x1="1333.89" y1="13.5098" x2="1333.89" y2="16.8898" gradientUnits="userSpaceOnUse">
<stop/>
<stop offset="1" stop-opacity="0"/>
</linearGradient>
<linearGradient id="paint13_linear_23_29" x1="1349.09" y1="13.5098" x2="1349.09" y2="16.8898" gradientUnits="userSpaceOnUse">
<stop/>
<stop offset="1" stop-opacity="0"/>
</linearGradient>
<linearGradient id="paint14_linear_23_29" x1="1364.29" y1="13.5098" x2="1364.29" y2="16.8898" gradientUnits="userSpaceOnUse">
<stop/>
<stop offset="1" stop-opacity="0"/>
</linearGradient>
<linearGradient id="paint15_linear_23_29" x1="1379.49" y1="13.5098" x2="1379.49" y2="16.8898" gradientUnits="userSpaceOnUse">
<stop/>
<stop offset="1" stop-opacity="0"/>
</linearGradient>
<linearGradient id="paint16_linear_23_29" x1="1394.69" y1="13.5098" x2="1394.69" y2="16.8898" gradientUnits="userSpaceOnUse">
<stop/>
<stop offset="1" stop-opacity="0"/>
</linearGradient>
<linearGradient id="paint17_linear_23_29" x1="1409.89" y1="13.5098" x2="1409.89" y2="16.8898" gradientUnits="userSpaceOnUse">
<stop/>
<stop offset="1" stop-opacity="0"/>
</linearGradient>
<linearGradient id="paint18_linear_23_29" x1="1425.09" y1="13.5098" x2="1425.09" y2="16.8898" gradientUnits="userSpaceOnUse">
<stop/>
<stop offset="1" stop-opacity="0"/>
</linearGradient>
<linearGradient id="paint19_linear_23_29" x1="1440.29" y1="13.5098" x2="1440.29" y2="16.8898" gradientUnits="userSpaceOnUse">
<stop/>
<stop offset="1" stop-opacity="0"/>
</linearGradient>
<linearGradient id="paint20_linear_23_29" x1="1455.49" y1="13.5098" x2="1455.49" y2="16.8898" gradientUnits="userSpaceOnUse">
<stop/>
<stop offset="1" stop-opacity="0"/>
</linearGradient>
<linearGradient id="paint21_linear_23_29" x1="1470.69" y1="13.5098" x2="1470.69" y2="16.8898" gradientUnits="userSpaceOnUse">
<stop/>
<stop offset="1" stop-opacity="0"/>
</linearGradient>
<linearGradient id="paint22_linear_23_29" x1="1318.69" y1="27.0195" x2="1318.69" y2="30.3995" gradientUnits="userSpaceOnUse">
<stop/>
<stop offset="1" stop-opacity="0"/>
</linearGradient>
<linearGradient id="paint23_linear_23_29" x1="1333.89" y1="27.0195" x2="1333.89" y2="30.3995" gradientUnits="userSpaceOnUse">
<stop/>
<stop offset="1" stop-opacity="0"/>
</linearGradient>
<linearGradient id="paint24_linear_23_29" x1="1349.09" y1="27.0195" x2="1349.09" y2="30.3995" gradientUnits="userSpaceOnUse">
<stop/>
<stop offset="1" stop-opacity="0"/>
</linearGradient>
<linearGradient id="paint25_linear_23_29" x1="1364.29" y1="27.0195" x2="1364.29" y2="30.3995" gradientUnits="userSpaceOnUse">
<stop/>
<stop offset="1" stop-opacity="0"/>
</linearGradient>
<linearGradient id="paint26_linear_23_29" x1="1379.49" y1="27.0195" x2="1379.49" y2="30.3995" gradientUnits="userSpaceOnUse">
<stop/>
<stop offset="1" stop-opacity="0"/>
</linearGradient>
<linearGradient id="paint27_linear_23_29" x1="1394.69" y1="27.0195" x2="1394.69" y2="30.3995" gradientUnits="userSpaceOnUse">
<stop/>
<stop offset="1" stop-opacity="0"/>
</linearGradient>
<linearGradient id="paint28_linear_23_29" x1="1409.89" y1="27.0195" x2="1409.89" y2="30.3995" gradientUnits="userSpaceOnUse">
<stop/>
<stop offset="1" stop-opacity="0"/>
</linearGradient>
<linearGradient id="paint29_linear_23_29" x1="1425.09" y1="27.0195" x2="1425.09" y2="30.3995" gradientUnits="userSpaceOnUse">
<stop/>
<stop offset="1" stop-opacity="0"/>
</linearGradient>
<linearGradient id="paint30_linear_23_29" x1="1440.29" y1="27.0195" x2="1440.29" y2="30.3995" gradientUnits="userSpaceOnUse">
<stop/>
<stop offset="1" stop-opacity="0"/>
</linearGradient>
<linearGradient id="paint31_linear_23_29" x1="1455.49" y1="27.0195" x2="1455.49" y2="30.3995" gradientUnits="userSpaceOnUse">
<stop/>
<stop offset="1" stop-opacity="0"/>
</linearGradient>
<linearGradient id="paint32_linear_23_29" x1="1470.69" y1="27.0195" x2="1470.69" y2="30.3995" gradientUnits="userSpaceOnUse">
<stop/>
<stop offset="1" stop-opacity="0"/>
</linearGradient>
<linearGradient id="paint33_linear_23_29" x1="1318.69" y1="40.5303" x2="1318.69" y2="43.9103" gradientUnits="userSpaceOnUse">
<stop/>
<stop offset="1" stop-opacity="0"/>
</linearGradient>
<linearGradient id="paint34_linear_23_29" x1="1333.89" y1="40.5303" x2="1333.89" y2="43.9103" gradientUnits="userSpaceOnUse">
<stop/>
<stop offset="1" stop-opacity="0"/>
</linearGradient>
<linearGradient id="paint35_linear_23_29" x1="1349.09" y1="40.5303" x2="1349.09" y2="43.9103" gradientUnits="userSpaceOnUse">
<stop/>
<stop offset="1" stop-opacity="0"/>
</linearGradient>
<linearGradient id="paint36_linear_23_29" x1="1364.29" y1="40.5303" x2="1364.29" y2="43.9103" gradientUnits="userSpaceOnUse">
<stop/>
<stop offset="1" stop-opacity="0"/>
</linearGradient>
<linearGradient id="paint37_linear_23_29" x1="1379.49" y1="40.5303" x2="1379.49" y2="43.9103" gradientUnits="userSpaceOnUse">
<stop/>
<stop offset="1" stop-opacity="0"/>
</linearGradient>
<linearGradient id="paint38_linear_23_29" x1="1394.69" y1="40.5303" x2="1394.69" y2="43.9103" gradientUnits="userSpaceOnUse">
<stop/>
<stop offset="1" stop-opacity="0"/>
</linearGradient>
<linearGradient id="paint39_linear_23_29" x1="1409.89" y1="40.5303" x2="1409.89" y2="43.9103" gradientUnits="userSpaceOnUse">
<stop/>
<stop offset="1" stop-opacity="0"/>
</linearGradient>
<linearGradient id="paint40_linear_23_29" x1="1425.09" y1="40.5303" x2="1425.09" y2="43.9103" gradientUnits="userSpaceOnUse">
<stop/>
<stop offset="1" stop-opacity="0"/>
</linearGradient>
<linearGradient id="paint41_linear_23_29" x1="1440.29" y1="40.5303" x2="1440.29" y2="43.9103" gradientUnits="userSpaceOnUse">
<stop/>
<stop offset="1" stop-opacity="0"/>
</linearGradient>
<linearGradient id="paint42_linear_23_29" x1="1455.49" y1="40.5303" x2="1455.49" y2="43.9103" gradientUnits="userSpaceOnUse">
<stop/>
<stop offset="1" stop-opacity="0"/>
</linearGradient>
<linearGradient id="paint43_linear_23_29" x1="1470.69" y1="40.5303" x2="1470.69" y2="43.9103" gradientUnits="userSpaceOnUse">
<stop/>
<stop offset="1" stop-opacity="0"/>
</linearGradient>
<linearGradient id="paint44_linear_23_29" x1="1318.69" y1="54.04" x2="1318.69" y2="57.42" gradientUnits="userSpaceOnUse">
<stop/>
<stop offset="1" stop-opacity="0"/>
</linearGradient>
<linearGradient id="paint45_linear_23_29" x1="1333.89" y1="54.04" x2="1333.89" y2="57.42" gradientUnits="userSpaceOnUse">
<stop/>
<stop offset="1" stop-opacity="0"/>
</linearGradient>
<linearGradient id="paint46_linear_23_29" x1="1349.09" y1="54.04" x2="1349.09" y2="57.42" gradientUnits="userSpaceOnUse">
<stop/>
<stop offset="1" stop-opacity="0"/>
</linearGradient>
<linearGradient id="paint47_linear_23_29" x1="1364.29" y1="54.04" x2="1364.29" y2="57.42" gradientUnits="userSpaceOnUse">
<stop/>
<stop offset="1" stop-opacity="0"/>
</linearGradient>
<linearGradient id="paint48_linear_23_29" x1="1379.49" y1="54.04" x2="1379.49" y2="57.42" gradientUnits="userSpaceOnUse">
<stop/>
<stop offset="1" stop-opacity="0"/>
</linearGradient>
<linearGradient id="paint49_linear_23_29" x1="1394.69" y1="54.04" x2="1394.69" y2="57.42" gradientUnits="userSpaceOnUse">
<stop/>
<stop offset="1" stop-opacity="0"/>
</linearGradient>
<linearGradient id="paint50_linear_23_29" x1="1409.89" y1="54.04" x2="1409.89" y2="57.42" gradientUnits="userSpaceOnUse">
<stop/>
<stop offset="1" stop-opacity="0"/>
</linearGradient>
<linearGradient id="paint51_linear_23_29" x1="1425.09" y1="54.04" x2="1425.09" y2="57.42" gradientUnits="userSpaceOnUse">
<stop/>
<stop offset="1" stop-opacity="0"/>
</linearGradient>
<linearGradient id="paint52_linear_23_29" x1="1440.29" y1="54.04" x2="1440.29" y2="57.42" gradientUnits="userSpaceOnUse">
<stop/>
<stop offset="1" stop-opacity="0"/>
</linearGradient>
<linearGradient id="paint53_linear_23_29" x1="1455.49" y1="54.04" x2="1455.49" y2="57.42" gradientUnits="userSpaceOnUse">
<stop/>
<stop offset="1" stop-opacity="0"/>
</linearGradient>
<linearGradient id="paint54_linear_23_29" x1="1470.69" y1="54.04" x2="1470.69" y2="57.42" gradientUnits="userSpaceOnUse">
<stop/>
<stop offset="1" stop-opacity="0"/>
</linearGradient>
<linearGradient id="paint55_linear_23_29" x1="1318.69" y1="67.5498" x2="1318.69" y2="70.9298" gradientUnits="userSpaceOnUse">
<stop/>
<stop offset="1" stop-opacity="0"/>
</linearGradient>
<linearGradient id="paint56_linear_23_29" x1="1333.89" y1="67.5498" x2="1333.89" y2="70.9298" gradientUnits="userSpaceOnUse">
<stop/>
<stop offset="1" stop-opacity="0"/>
</linearGradient>
<linearGradient id="paint57_linear_23_29" x1="1349.09" y1="67.5498" x2="1349.09" y2="70.9298" gradientUnits="userSpaceOnUse">
<stop/>
<stop offset="1" stop-opacity="0"/>
</linearGradient>
<linearGradient id="paint58_linear_23_29" x1="1364.29" y1="67.5498" x2="1364.29" y2="70.9298" gradientUnits="userSpaceOnUse">
<stop/>
<stop offset="1" stop-opacity="0"/>
</linearGradient>
<linearGradient id="paint59_linear_23_29" x1="1379.49" y1="67.5498" x2="1379.49" y2="70.9298" gradientUnits="userSpaceOnUse">
<stop/>
<stop offset="1" stop-opacity="0"/>
</linearGradient>
<linearGradient id="paint60_linear_23_29" x1="1394.69" y1="67.5498" x2="1394.69" y2="70.9298" gradientUnits="userSpaceOnUse">
<stop/>
<stop offset="1" stop-opacity="0"/>
</linearGradient>
<linearGradient id="paint61_linear_23_29" x1="1409.89" y1="67.5498" x2="1409.89" y2="70.9298" gradientUnits="userSpaceOnUse">
<stop/>
<stop offset="1" stop-opacity="0"/>
</linearGradient>
<linearGradient id="paint62_linear_23_29" x1="1425.09" y1="67.5498" x2="1425.09" y2="70.9298" gradientUnits="userSpaceOnUse">
<stop/>
<stop offset="1" stop-opacity="0"/>
</linearGradient>
<linearGradient id="paint63_linear_23_29" x1="1440.29" y1="67.5498" x2="1440.29" y2="70.9298" gradientUnits="userSpaceOnUse">
<stop/>
<stop offset="1" stop-opacity="0"/>
</linearGradient>
<linearGradient id="paint64_linear_23_29" x1="1455.49" y1="67.5498" x2="1455.49" y2="70.9298" gradientUnits="userSpaceOnUse">
<stop/>
<stop offset="1" stop-opacity="0"/>
</linearGradient>
<linearGradient id="paint65_linear_23_29" x1="1470.69" y1="67.5498" x2="1470.69" y2="70.9298" gradientUnits="userSpaceOnUse">
<stop/>
<stop offset="1" stop-opacity="0"/>
</linearGradient>
<linearGradient id="paint66_linear_23_29" x1="1318.69" y1="81.0596" x2="1318.69" y2="84.4396" gradientUnits="userSpaceOnUse">
<stop/>
<stop offset="1" stop-opacity="0"/>
</linearGradient>
<linearGradient id="paint67_linear_23_29" x1="1333.89" y1="81.0596" x2="1333.89" y2="84.4396" gradientUnits="userSpaceOnUse">
<stop/>
<stop offset="1" stop-opacity="0"/>
</linearGradient>
<linearGradient id="paint68_linear_23_29" x1="1349.09" y1="81.0596" x2="1349.09" y2="84.4396" gradientUnits="userSpaceOnUse">
<stop/>
<stop offset="1" stop-opacity="0"/>
</linearGradient>
<linearGradient id="paint69_linear_23_29" x1="1364.29" y1="81.0596" x2="1364.29" y2="84.4396" gradientUnits="userSpaceOnUse">
<stop/>
<stop offset="1" stop-opacity="0"/>
</linearGradient>
<linearGradient id="paint70_linear_23_29" x1="1379.49" y1="81.0596" x2="1379.49" y2="84.4396" gradientUnits="userSpaceOnUse">
<stop/>
<stop offset="1" stop-opacity="0"/>
</linearGradient>
<linearGradient id="paint71_linear_23_29" x1="1394.69" y1="81.0596" x2="1394.69" y2="84.4396" gradientUnits="userSpaceOnUse">
<stop/>
<stop offset="1" stop-opacity="0"/>
</linearGradient>
<linearGradient id="paint72_linear_23_29" x1="1409.89" y1="81.0596" x2="1409.89" y2="84.4396" gradientUnits="userSpaceOnUse">
<stop/>
<stop offset="1" stop-opacity="0"/>
</linearGradient>
<linearGradient id="paint73_linear_23_29" x1="1425.09" y1="81.0596" x2="1425.09" y2="84.4396" gradientUnits="userSpaceOnUse">
<stop/>
<stop offset="1" stop-opacity="0"/>
</linearGradient>
<linearGradient id="paint74_linear_23_29" x1="1440.29" y1="81.0596" x2="1440.29" y2="84.4396" gradientUnits="userSpaceOnUse">
<stop/>
<stop offset="1" stop-opacity="0"/>
</linearGradient>
<linearGradient id="paint75_linear_23_29" x1="1455.49" y1="81.0596" x2="1455.49" y2="84.4396" gradientUnits="userSpaceOnUse">
<stop/>
<stop offset="1" stop-opacity="0"/>
</linearGradient>
<linearGradient id="paint76_linear_23_29" x1="1470.69" y1="81.0596" x2="1470.69" y2="84.4396" gradientUnits="userSpaceOnUse">
<stop/>
<stop offset="1" stop-opacity="0"/>
</linearGradient>
<linearGradient id="paint77_linear_23_29" x1="1318.69" y1="94.5801" x2="1318.69" y2="97.9601" gradientUnits="userSpaceOnUse">
<stop/>
<stop offset="1" stop-opacity="0"/>
</linearGradient>
<linearGradient id="paint78_linear_23_29" x1="1333.89" y1="94.5801" x2="1333.89" y2="97.9601" gradientUnits="userSpaceOnUse">
<stop/>
<stop offset="1" stop-opacity="0"/>
</linearGradient>
<linearGradient id="paint79_linear_23_29" x1="1349.09" y1="94.5801" x2="1349.09" y2="97.9601" gradientUnits="userSpaceOnUse">
<stop/>
<stop offset="1" stop-opacity="0"/>
</linearGradient>
<linearGradient id="paint80_linear_23_29" x1="1364.29" y1="94.5801" x2="1364.29" y2="97.9601" gradientUnits="userSpaceOnUse">
<stop/>
<stop offset="1" stop-opacity="0"/>
</linearGradient>
<linearGradient id="paint81_linear_23_29" x1="1379.49" y1="94.5801" x2="1379.49" y2="97.9601" gradientUnits="userSpaceOnUse">
<stop/>
<stop offset="1" stop-opacity="0"/>
</linearGradient>
<linearGradient id="paint82_linear_23_29" x1="1394.69" y1="94.5801" x2="1394.69" y2="97.9601" gradientUnits="userSpaceOnUse">
<stop/>
<stop offset="1" stop-opacity="0"/>
</linearGradient>
<linearGradient id="paint83_linear_23_29" x1="1409.89" y1="94.5801" x2="1409.89" y2="97.9601" gradientUnits="userSpaceOnUse">
<stop/>
<stop offset="1" stop-opacity="0"/>
</linearGradient>
<linearGradient id="paint84_linear_23_29" x1="1425.09" y1="94.5801" x2="1425.09" y2="97.9601" gradientUnits="userSpaceOnUse">
<stop/>
<stop offset="1" stop-opacity="0"/>
</linearGradient>
<linearGradient id="paint85_linear_23_29" x1="1440.29" y1="94.5801" x2="1440.29" y2="97.9601" gradientUnits="userSpaceOnUse">
<stop/>
<stop offset="1" stop-opacity="0"/>
</linearGradient>
<linearGradient id="paint86_linear_23_29" x1="1455.49" y1="94.5801" x2="1455.49" y2="97.9601" gradientUnits="userSpaceOnUse">
<stop/>
<stop offset="1" stop-opacity="0"/>
</linearGradient>
<linearGradient id="paint87_linear_23_29" x1="1470.69" y1="94.5801" x2="1470.69" y2="97.9601" gradientUnits="userSpaceOnUse">
<stop/>
<stop offset="1" stop-opacity="0"/>
</linearGradient>
<linearGradient id="paint88_linear_23_29" x1="1318.69" y1="108.09" x2="1318.69" y2="111.47" gradientUnits="userSpaceOnUse">
<stop/>
<stop offset="1" stop-opacity="0"/>
</linearGradient>
<linearGradient id="paint89_linear_23_29" x1="1333.89" y1="108.09" x2="1333.89" y2="111.47" gradientUnits="userSpaceOnUse">
<stop/>
<stop offset="1" stop-opacity="0"/>
</linearGradient>
<linearGradient id="paint90_linear_23_29" x1="1349.09" y1="108.09" x2="1349.09" y2="111.47" gradientUnits="userSpaceOnUse">
<stop/>
<stop offset="1" stop-opacity="0"/>
</linearGradient>
<linearGradient id="paint91_linear_23_29" x1="1364.29" y1="108.09" x2="1364.29" y2="111.47" gradientUnits="userSpaceOnUse">
<stop/>
<stop offset="1" stop-opacity="0"/>
</linearGradient>
<linearGradient id="paint92_linear_23_29" x1="1379.49" y1="108.09" x2="1379.49" y2="111.47" gradientUnits="userSpaceOnUse">
<stop/>
<stop offset="1" stop-opacity="0"/>
</linearGradient>
<linearGradient id="paint93_linear_23_29" x1="1394.69" y1="108.09" x2="1394.69" y2="111.47" gradientUnits="userSpaceOnUse">
<stop/>
<stop offset="1" stop-opacity="0"/>
</linearGradient>
<linearGradient id="paint94_linear_23_29" x1="1409.89" y1="108.09" x2="1409.89" y2="111.47" gradientUnits="userSpaceOnUse">
<stop/>
<stop offset="1" stop-opacity="0"/>
</linearGradient>
<linearGradient id="paint95_linear_23_29" x1="1425.09" y1="108.09" x2="1425.09" y2="111.47" gradientUnits="userSpaceOnUse">
<stop/>
<stop offset="1" stop-opacity="0"/>
</linearGradient>
<linearGradient id="paint96_linear_23_29" x1="1440.29" y1="108.09" x2="1440.29" y2="111.47" gradientUnits="userSpaceOnUse">
<stop/>
<stop offset="1" stop-opacity="0"/>
</linearGradient>
<linearGradient id="paint97_linear_23_29" x1="1455.49" y1="108.09" x2="1455.49" y2="111.47" gradientUnits="userSpaceOnUse">
<stop/>
<stop offset="1" stop-opacity="0"/>
</linearGradient>
<linearGradient id="paint98_linear_23_29" x1="1470.69" y1="108.09" x2="1470.69" y2="111.47" gradientUnits="userSpaceOnUse">
<stop/>
<stop offset="1" stop-opacity="0"/>
</linearGradient>
<linearGradient id="paint99_linear_23_29" x1="1318.69" y1="121.6" x2="1318.69" y2="124.98" gradientUnits="userSpaceOnUse">
<stop/>
<stop offset="1" stop-opacity="0"/>
</linearGradient>
<linearGradient id="paint100_linear_23_29" x1="1333.89" y1="121.6" x2="1333.89" y2="124.98" gradientUnits="userSpaceOnUse">
<stop/>
<stop offset="1" stop-opacity="0"/>
</linearGradient>
<linearGradient id="paint101_linear_23_29" x1="1349.09" y1="121.6" x2="1349.09" y2="124.98" gradientUnits="userSpaceOnUse">
<stop/>
<stop offset="1" stop-opacity="0"/>
</linearGradient>
<linearGradient id="paint102_linear_23_29" x1="1364.29" y1="121.6" x2="1364.29" y2="124.98" gradientUnits="userSpaceOnUse">
<stop/>
<stop offset="1" stop-opacity="0"/>
</linearGradient>
<linearGradient id="paint103_linear_23_29" x1="1379.49" y1="121.6" x2="1379.49" y2="124.98" gradientUnits="userSpaceOnUse">
<stop/>
<stop offset="1" stop-opacity="0"/>
</linearGradient>
<linearGradient id="paint104_linear_23_29" x1="1394.69" y1="121.6" x2="1394.69" y2="124.98" gradientUnits="userSpaceOnUse">
<stop/>
<stop offset="1" stop-opacity="0"/>
</linearGradient>
<linearGradient id="paint105_linear_23_29" x1="1409.89" y1="121.6" x2="1409.89" y2="124.98" gradientUnits="userSpaceOnUse">
<stop/>
<stop offset="1" stop-opacity="0"/>
</linearGradient>
<linearGradient id="paint106_linear_23_29" x1="1425.09" y1="121.6" x2="1425.09" y2="124.98" gradientUnits="userSpaceOnUse">
<stop/>
<stop offset="1" stop-opacity="0"/>
</linearGradient>
<linearGradient id="paint107_linear_23_29" x1="1440.29" y1="121.6" x2="1440.29" y2="124.98" gradientUnits="userSpaceOnUse">
<stop/>
<stop offset="1" stop-opacity="0"/>
</linearGradient>
<linearGradient id="paint108_linear_23_29" x1="1455.49" y1="121.6" x2="1455.49" y2="124.98" gradientUnits="userSpaceOnUse">
<stop/>
<stop offset="1" stop-opacity="0"/>
</linearGradient>
<linearGradient id="paint109_linear_23_29" x1="1470.69" y1="121.6" x2="1470.69" y2="124.98" gradientUnits="userSpaceOnUse">
<stop/>
<stop offset="1" stop-opacity="0"/>
</linearGradient>
<linearGradient id="paint110_linear_23_29" x1="1318.69" y1="135.11" x2="1318.69" y2="138.49" gradientUnits="userSpaceOnUse">
<stop/>
<stop offset="1" stop-opacity="0"/>
</linearGradient>
<linearGradient id="paint111_linear_23_29" x1="1333.89" y1="135.11" x2="1333.89" y2="138.49" gradientUnits="userSpaceOnUse">
<stop/>
<stop offset="1" stop-opacity="0"/>
</linearGradient>
<linearGradient id="paint112_linear_23_29" x1="1349.09" y1="135.11" x2="1349.09" y2="138.49" gradientUnits="userSpaceOnUse">
<stop/>
<stop offset="1" stop-opacity="0"/>
</linearGradient>
<linearGradient id="paint113_linear_23_29" x1="1364.29" y1="135.11" x2="1364.29" y2="138.49" gradientUnits="userSpaceOnUse">
<stop/>
<stop offset="1" stop-opacity="0"/>
</linearGradient>
<linearGradient id="paint114_linear_23_29" x1="1379.49" y1="135.11" x2="1379.49" y2="138.49" gradientUnits="userSpaceOnUse">
<stop/>
<stop offset="1" stop-opacity="0"/>
</linearGradient>
<linearGradient id="paint115_linear_23_29" x1="1394.69" y1="135.11" x2="1394.69" y2="138.49" gradientUnits="userSpaceOnUse">
<stop/>
<stop offset="1" stop-opacity="0"/>
</linearGradient>
<linearGradient id="paint116_linear_23_29" x1="1409.89" y1="135.11" x2="1409.89" y2="138.49" gradientUnits="userSpaceOnUse">
<stop/>
<stop offset="1" stop-opacity="0"/>
</linearGradient>
<linearGradient id="paint117_linear_23_29" x1="1425.09" y1="135.11" x2="1425.09" y2="138.49" gradientUnits="userSpaceOnUse">
<stop/>
<stop offset="1" stop-opacity="0"/>
</linearGradient>
<linearGradient id="paint118_linear_23_29" x1="1440.29" y1="135.11" x2="1440.29" y2="138.49" gradientUnits="userSpaceOnUse">
<stop/>
<stop offset="1" stop-opacity="0"/>
</linearGradient>
<linearGradient id="paint119_linear_23_29" x1="1455.49" y1="135.11" x2="1455.49" y2="138.49" gradientUnits="userSpaceOnUse">
<stop/>
<stop offset="1" stop-opacity="0"/>
</linearGradient>
<linearGradient id="paint120_linear_23_29" x1="1470.69" y1="135.11" x2="1470.69" y2="138.49" gradientUnits="userSpaceOnUse">
<stop/>
<stop offset="1" stop-opacity="0"/>
</linearGradient>
<linearGradient id="paint121_linear_23_29" x1="1318.69" y1="148.62" x2="1318.69" y2="152" gradientUnits="userSpaceOnUse">
<stop/>
<stop offset="1" stop-opacity="0"/>
</linearGradient>
<linearGradient id="paint122_linear_23_29" x1="1333.89" y1="148.62" x2="1333.89" y2="152" gradientUnits="userSpaceOnUse">
<stop/>
<stop offset="1" stop-opacity="0"/>
</linearGradient>
<linearGradient id="paint123_linear_23_29" x1="1349.09" y1="148.62" x2="1349.09" y2="152" gradientUnits="userSpaceOnUse">
<stop/>
<stop offset="1" stop-opacity="0"/>
</linearGradient>
<linearGradient id="paint124_linear_23_29" x1="1364.29" y1="148.62" x2="1364.29" y2="152" gradientUnits="userSpaceOnUse">
<stop/>
<stop offset="1" stop-opacity="0"/>
</linearGradient>
<linearGradient id="paint125_linear_23_29" x1="1379.49" y1="148.62" x2="1379.49" y2="152" gradientUnits="userSpaceOnUse">
<stop/>
<stop offset="1" stop-opacity="0"/>
</linearGradient>
<linearGradient id="paint126_linear_23_29" x1="1394.69" y1="148.62" x2="1394.69" y2="152" gradientUnits="userSpaceOnUse">
<stop/>
<stop offset="1" stop-opacity="0"/>
</linearGradient>
<linearGradient id="paint127_linear_23_29" x1="1409.89" y1="148.62" x2="1409.89" y2="152" gradientUnits="userSpaceOnUse">
<stop/>
<stop offset="1" stop-opacity="0"/>
</linearGradient>
<linearGradient id="paint128_linear_23_29" x1="1425.09" y1="148.62" x2="1425.09" y2="152" gradientUnits="userSpaceOnUse">
<stop/>
<stop offset="1" stop-opacity="0"/>
</linearGradient>
<linearGradient id="paint129_linear_23_29" x1="1440.29" y1="148.62" x2="1440.29" y2="152" gradientUnits="userSpaceOnUse">
<stop/>
<stop offset="1" stop-opacity="0"/>
</linearGradient>
<linearGradient id="paint130_linear_23_29" x1="1455.49" y1="148.62" x2="1455.49" y2="152" gradientUnits="userSpaceOnUse">
<stop/>
<stop offset="1" stop-opacity="0"/>
</linearGradient>
<linearGradient id="paint131_linear_23_29" x1="1470.69" y1="148.62" x2="1470.69" y2="152" gradientUnits="userSpaceOnUse">
<stop/>
<stop offset="1" stop-opacity="0"/>
</linearGradient>
</defs>
</svg>
