<svg width="1920" height="1679" viewBox="0 0 1920 1679" fill="none" xmlns="http://www.w3.org/2000/svg">
<g opacity="0.71">
<path opacity="0.71" d="M1894.13 234.276C1907.83 231.7 1916.85 218.506 1914.28 204.806C1911.7 191.106 1898.51 182.088 1884.81 184.664C1871.11 187.24 1862.09 200.435 1864.66 214.135C1867.24 227.834 1880.43 236.852 1894.13 234.276Z" fill="black" fill-opacity="0.12"/>
</g>
<path d="M1709.94 1550.25L1707.72 1548.55C1737.29 1509.72 1752.92 1463.34 1752.92 1414.4C1752.92 1338.58 1714.78 1268.83 1650.88 1227.8L1652.4 1225.45C1717.1 1266.97 1755.72 1337.61 1755.72 1414.4C1755.72 1463.94 1739.88 1510.92 1709.94 1550.25Z" fill="#EBCEB9"/>
<path d="M1531.37 1638.75C1407.66 1638.75 1307 1538.09 1307 1414.37C1307 1290.66 1407.66 1190 1531.37 1190V1192.8C1409.2 1192.8 1309.82 1292.2 1309.82 1414.35C1309.82 1536.52 1409.23 1635.9 1531.37 1635.9C1568.29 1635.9 1604.84 1626.64 1637.05 1609.12L1638.38 1611.58C1605.75 1629.39 1568.73 1638.75 1531.37 1638.75Z" fill="#EBCEB9"/>
<path d="M1425.2 1587.09C1364.75 1549.86 1328.67 1485.28 1328.67 1414.37H1334.29C1334.29 1483.32 1369.38 1546.09 1428.15 1582.3L1425.2 1587.09Z" fill="#EBCEB9"/>
<path d="M1531.37 1617.1C1509.15 1617.1 1487.32 1613.52 1466.46 1606.48L1468.26 1601.18C1488.55 1608.03 1509.78 1611.5 1531.4 1611.5C1632.92 1611.5 1717.24 1535.45 1727.46 1434.58L1733.05 1435.16C1722.49 1538.85 1635.8 1617.1 1531.37 1617.1Z" fill="#EBCEB9"/>
<path d="M1725.94 1382.89C1718.6 1337.17 1695.12 1295.26 1659.8 1264.9C1624.11 1234.21 1578.49 1217.32 1531.37 1217.32C1493.33 1217.32 1456.42 1228.17 1424.6 1248.72C1387.53 1272.67 1359.24 1308.75 1344.94 1350.32L1339.63 1348.49C1354.32 1305.74 1383.42 1268.64 1421.54 1244.01C1454.27 1222.89 1492.24 1211.72 1531.35 1211.72C1579.82 1211.72 1626.72 1229.11 1663.43 1260.67C1699.75 1291.88 1723.9 1335 1731.46 1382.03L1725.94 1382.89Z" fill="#EBCEB9"/>
<path d="M1531.37 1560.78C1450.64 1560.78 1384.96 1495.11 1384.96 1414.37C1384.96 1381.69 1395.5 1350.79 1415.4 1325.01L1419.84 1328.43C1400.7 1353.25 1390.58 1382.95 1390.58 1414.37C1390.58 1492 1453.75 1555.16 1531.37 1555.16C1545.15 1555.16 1558.77 1553.17 1571.82 1549.25L1573.44 1554.64C1559.85 1558.74 1545.67 1560.78 1531.37 1560.78Z" fill="#EBCEB9"/>
<path d="M1630.25 1522.35L1626.46 1518.22C1655.51 1491.61 1672.16 1453.77 1672.16 1414.4C1672.16 1386.69 1664.11 1359.86 1648.89 1336.83L1653.57 1333.74C1669.42 1357.69 1677.78 1385.59 1677.78 1414.43C1677.76 1455.34 1660.45 1494.69 1630.25 1522.35Z" fill="#EBCEB9"/>
<path d="M1618.96 1304.15C1593.83 1284.15 1563.53 1273.58 1531.37 1273.58C1503.16 1273.58 1475.95 1281.9 1452.65 1297.64L1449.51 1292.98C1473.72 1276.62 1502.04 1267.99 1531.37 1267.99C1564.84 1267.99 1596.34 1278.97 1622.46 1299.78L1618.96 1304.15Z" fill="#EBCEB9"/>
<path d="M1531.37 1535.63C1511.66 1535.63 1492.08 1530.79 1474.77 1521.64L1476.08 1519.16C1492.99 1528.1 1512.1 1532.83 1531.35 1532.83C1584.5 1532.83 1631.45 1497.09 1645.55 1445.9L1648.24 1446.66C1633.86 1499.06 1585.78 1535.63 1531.37 1535.63Z" fill="#EBCEB9"/>
<path d="M1445.65 1500.15C1422.74 1477.25 1410.12 1446.79 1410.12 1414.4C1410.12 1347.55 1464.5 1293.14 1531.37 1293.14C1598.23 1293.14 1652.63 1347.55 1652.63 1414.4H1649.84C1649.84 1349.09 1596.71 1295.96 1531.4 1295.96C1466.09 1295.96 1412.96 1349.09 1412.96 1414.4C1412.96 1446.03 1425.28 1475.79 1447.69 1498.17L1445.65 1500.15Z" fill="#EBCEB9"/>
<path d="M1531.37 1489.8C1489.78 1489.8 1455.94 1455.97 1455.94 1414.37C1455.94 1372.78 1489.78 1338.95 1531.37 1338.95V1344.57C1492.89 1344.57 1461.57 1375.89 1461.57 1414.37C1461.57 1452.86 1492.89 1484.18 1531.37 1484.18C1569.86 1484.18 1601.18 1452.86 1601.18 1414.37H1606.8C1606.77 1455.97 1572.94 1489.8 1531.37 1489.8Z" fill="#EBCEB9"/>
<path d="M1531.37 1451.87C1510.69 1451.87 1493.88 1435.05 1493.88 1414.37H1496.68C1496.68 1433.49 1512.24 1449.04 1531.35 1449.04C1550.46 1449.04 1566.02 1433.49 1566.02 1414.37C1566.02 1395.26 1550.46 1379.71 1531.35 1379.71C1520.73 1379.71 1510.85 1384.46 1504.21 1392.78L1502.01 1391.03C1509.18 1382.03 1519.87 1376.88 1531.35 1376.88C1552.03 1376.88 1568.84 1393.69 1568.84 1414.37C1568.84 1435.05 1552.03 1451.87 1531.37 1451.87Z" fill="#EBCEB9"/>
<path d="M233.966 483.257C232.167 487.558 230.611 491.981 229.36 496.435L373.095 640.17C377.549 638.919 381.941 637.364 386.273 635.564L233.966 483.257Z" fill="black" fill-opacity="0.08"/>
<path d="M243.851 464.649C241.441 468.309 239.306 472.092 237.354 475.935L393.595 632.177C397.439 630.225 401.221 628.089 404.882 625.68L243.851 464.649Z" fill="black" fill-opacity="0.08"/>
<path d="M256.389 448.756C253.491 451.868 250.776 455.071 248.244 458.396L411.136 621.287C414.461 618.786 417.694 616.071 420.775 613.142L256.389 448.756Z" fill="black" fill-opacity="0.08"/>
<path d="M451.403 490.7C445.851 474.381 436.578 459.006 423.553 446.012C410.527 432.987 395.184 423.713 378.864 418.162L451.403 490.7Z" fill="black" fill-opacity="0.08"/>
<path d="M318.312 642.335C324.901 643.647 331.611 644.379 338.322 644.562L225 531.239C225.183 537.95 225.885 544.631 227.227 551.25L318.312 642.335Z" fill="black" fill-opacity="0.08"/>
<path d="M227.288 505.037C226.22 510.223 225.549 515.469 225.214 520.747L348.816 644.349C354.093 644.013 359.34 643.312 364.526 642.275L227.288 505.037Z" fill="black" fill-opacity="0.08"/>
<path d="M288.936 424.354C285.092 426.306 281.31 428.441 277.649 430.851L438.711 591.912C441.12 588.252 443.256 584.469 445.208 580.626L288.936 424.354Z" fill="black" fill-opacity="0.08"/>
<path d="M364.221 414.227C357.632 412.915 350.921 412.183 344.21 412L457.532 525.322C457.349 518.611 456.648 511.931 455.306 505.312L364.221 414.227Z" fill="black" fill-opacity="0.08"/>
<path d="M231.131 565.832C236.683 582.152 245.956 597.526 258.981 610.52C272.006 623.546 287.35 632.819 303.669 638.371L231.131 565.832Z" fill="black" fill-opacity="0.08"/>
<path d="M309.435 416.363C304.982 417.613 300.589 419.169 296.258 420.969L448.564 573.275C450.364 568.974 451.92 564.551 453.17 560.098L309.435 416.363Z" fill="black" fill-opacity="0.08"/>
<path d="M333.717 412.213C328.44 412.548 323.193 413.25 318.008 414.287L455.245 551.525C456.313 546.339 456.984 541.092 457.32 535.815L333.717 412.213Z" fill="black" fill-opacity="0.08"/>
<path d="M271.396 435.274C268.071 437.775 264.838 440.49 261.757 443.418L426.174 607.835C429.071 604.724 431.786 601.521 434.318 598.196L271.396 435.274Z" fill="black" fill-opacity="0.08"/>
<path d="M1647.43 82.9839C1644.25 82.984 1641.68 80.4136 1641.68 77.235C1641.68 74.0563 1644.25 71.4857 1647.43 71.4855C1650.61 71.4854 1653.18 74.0559 1653.18 77.2345C1653.18 80.4131 1650.61 82.9837 1647.43 82.9839ZM1653.18 111.619C1653.18 108.44 1650.61 105.87 1647.43 105.87C1644.25 105.87 1641.68 108.441 1641.68 111.619C1641.68 114.798 1644.25 117.368 1647.43 117.368C1650.61 117.368 1653.18 114.797 1653.18 111.619ZM1653.18 146.003C1653.18 142.825 1650.61 140.254 1647.43 140.254C1644.25 140.255 1641.68 142.825 1641.68 146.004C1641.68 149.182 1644.25 151.753 1647.43 151.753C1650.6 151.753 1653.18 149.182 1653.18 146.003ZM1653.17 180.388C1653.17 177.209 1650.6 174.639 1647.42 174.639C1644.25 174.639 1641.68 177.21 1641.68 180.388C1641.68 183.567 1644.25 186.137 1647.42 186.137C1650.6 186.137 1653.17 183.566 1653.17 180.388ZM1653.17 214.772C1653.17 211.594 1650.6 209.023 1647.42 209.023C1644.24 209.023 1641.67 211.594 1641.67 214.773C1641.67 217.951 1644.24 220.522 1647.42 220.522C1650.6 220.521 1653.17 217.951 1653.17 214.772ZM1618.79 77.2361C1618.79 74.0575 1616.22 71.487 1613.05 71.4871C1609.87 71.4873 1607.3 74.058 1607.3 77.2366C1607.3 80.4152 1609.87 82.9857 1613.04 82.9855C1616.22 82.9854 1618.79 80.4147 1618.79 77.2361ZM1618.79 111.621C1618.79 108.442 1616.22 105.871 1613.04 105.872C1609.86 105.872 1607.29 108.442 1607.29 111.621C1607.29 114.8 1609.86 117.37 1613.04 117.37C1616.22 117.37 1618.79 114.799 1618.79 111.621ZM1618.79 146.005C1618.79 142.826 1616.22 140.256 1613.04 140.256C1609.86 140.256 1607.29 142.827 1607.29 146.005C1607.29 149.184 1609.86 151.755 1613.04 151.754C1616.22 151.754 1618.79 149.184 1618.79 146.005ZM1618.79 180.389C1618.79 177.211 1616.22 174.64 1613.04 174.641C1609.86 174.641 1607.29 177.211 1607.29 180.39C1607.29 183.569 1609.86 186.139 1613.04 186.139C1616.22 186.139 1618.79 183.568 1618.79 180.389ZM1618.79 214.774C1618.79 211.595 1616.22 209.025 1613.04 209.025C1609.86 209.025 1607.29 211.596 1607.29 214.774C1607.29 217.953 1609.86 220.523 1613.04 220.523C1616.22 220.523 1618.79 217.952 1618.79 214.774ZM1584.41 77.2377C1584.41 74.0591 1581.84 71.4886 1578.66 71.4888C1575.48 71.4889 1572.91 74.0596 1572.91 77.2382C1572.91 80.4168 1575.48 82.9873 1578.66 82.9872C1581.84 82.987 1584.41 80.4163 1584.41 77.2377ZM1584.41 111.622C1584.41 108.444 1581.84 105.873 1578.66 105.873C1575.48 105.873 1572.91 108.444 1572.91 111.623C1572.91 114.801 1575.48 117.372 1578.66 117.372C1581.84 117.371 1584.41 114.801 1584.41 111.622ZM1584.41 146.007C1584.41 142.828 1581.84 140.258 1578.66 140.258C1575.48 140.258 1572.91 142.828 1572.91 146.007C1572.91 149.186 1575.48 151.756 1578.66 151.756C1581.84 151.756 1584.41 149.185 1584.41 146.007ZM1584.4 180.391C1584.4 177.212 1581.83 174.642 1578.66 174.642C1575.48 174.642 1572.91 177.213 1572.91 180.392C1572.91 183.57 1575.48 186.141 1578.66 186.14C1581.83 186.14 1584.4 183.57 1584.4 180.391ZM1584.4 214.775C1584.4 211.597 1581.83 209.026 1578.65 209.027C1575.48 209.027 1572.9 211.597 1572.9 214.776C1572.9 217.955 1575.47 220.525 1578.65 220.525C1581.83 220.525 1584.42 217.94 1584.4 214.775ZM1550.03 77.2393C1550.03 74.0607 1547.45 71.4903 1544.28 71.4904C1541.1 71.4906 1538.53 74.0612 1538.53 77.2399C1538.53 80.4185 1541.1 82.9889 1544.28 82.9888C1547.45 82.9886 1550.03 80.418 1550.03 77.2393ZM1550.02 111.624C1550.02 108.445 1547.45 105.875 1544.27 105.875C1541.1 105.875 1538.53 108.446 1538.53 111.624C1538.53 114.803 1541.1 117.373 1544.27 117.373C1547.45 117.373 1550.02 114.802 1550.02 111.624ZM1550.02 146.008C1550.02 142.83 1547.45 140.259 1544.27 140.259C1541.09 140.259 1538.52 142.83 1538.52 146.009C1538.52 149.187 1541.09 151.758 1544.27 151.758C1547.45 151.758 1550.02 149.187 1550.02 146.008ZM1550.02 180.393C1550.02 177.214 1547.45 174.644 1544.27 174.644C1541.09 174.644 1538.52 177.215 1538.52 180.393C1538.52 183.572 1541.09 186.142 1544.27 186.142C1547.45 186.142 1550.03 183.558 1550.02 180.393ZM1550.02 214.777C1550.02 211.598 1547.45 209.028 1544.27 209.028C1541.09 209.028 1538.52 211.599 1538.52 214.778C1538.52 217.956 1541.09 220.527 1544.27 220.527C1547.45 220.526 1550.03 217.942 1550.02 214.777ZM1515.64 77.241C1515.64 74.0624 1513.07 71.4919 1509.89 71.492C1506.71 71.4922 1504.14 74.0629 1504.14 77.2415C1504.14 80.4201 1506.71 82.9906 1509.89 82.9904C1513.07 82.9903 1515.64 80.4196 1515.64 77.241ZM1515.64 111.625C1515.64 108.447 1513.07 105.876 1509.89 105.876C1506.71 105.877 1504.14 108.447 1504.14 111.626C1504.14 114.805 1506.71 117.375 1509.89 117.375C1513.07 117.375 1515.64 114.804 1515.64 111.625ZM1515.64 146.01C1515.64 142.831 1513.07 140.261 1509.89 140.261C1506.71 140.261 1504.14 142.832 1504.14 146.01C1504.14 149.189 1506.71 151.759 1509.89 151.759C1513.07 151.759 1515.65 149.175 1515.64 146.01ZM1515.64 180.394C1515.64 177.216 1513.07 174.645 1509.89 174.645C1506.71 174.646 1504.14 177.216 1504.14 180.395C1504.14 183.573 1506.71 186.144 1509.89 186.144C1513.07 186.144 1515.65 183.559 1515.64 180.394ZM1515.65 214.765C1515.65 211.586 1513.08 209.016 1509.9 209.016C1506.72 209.016 1504.15 211.587 1504.15 214.765C1504.15 217.944 1506.72 220.515 1509.9 220.514C1513.06 220.528 1515.65 217.944 1515.65 214.765Z" fill="black" fill-opacity="0.13"/>
<path d="M1860 263H1979.89C1979.89 296.11 1953.05 322.95 1919.94 322.95C1886.84 322.94 1860 296.1 1860 263Z" fill="black" fill-opacity="0.12"/>
<path d="M-44 1619H75.89C75.89 1652.11 49.05 1678.95 15.94 1678.95C-17.16 1678.94 -44 1652.1 -44 1619Z" fill="#B4E3ED"/>
<g opacity="0.71">
<path opacity="0.71" d="M50.1346 1590.28C63.8345 1587.7 72.8521 1574.51 70.2761 1560.81C67.7 1547.11 54.5058 1538.09 40.8059 1540.66C27.106 1543.24 18.0883 1556.44 20.6644 1570.13C23.2404 1583.83 36.4347 1592.85 50.1346 1590.28Z" fill="#D7EAEA"/>
</g>
</svg>
